Oswald--500.ufo
<glyph name="numbersign" format="1">
  <advance width="1044"/>
  <unicode hex="0023"/>
  <outline>
    <contour>
      <point x="96" y="0" type="line"/>
      <point x="323" y="0" type="line"/>
      <point x="399" y="574" type="line"/>
      <point x="568" y="574" type="line"/>
      <point x="493" y="0" type="line"/>
      <point x="722" y="0" type="line"/>
      <point x="797" y="574" type="line"/>
      <point x="965" y="574" type="line"/>
      <point x="967" y="765" type="line"/>
      <point x="824" y="765" type="line"/>
      <point x="851" y="967" type="line"/>
      <point x="968" y="967" type="line"/>
      <point x="970" y="1161" type="line"/>
      <point x="880" y="1161" type="line"/>
      <point x="946" y="1658" type="line"/>
      <point x="718" y="1658" type="line"/>
      <point x="652" y="1161" type="line"/>
      <point x="483" y="1161" type="line"/>
      <point x="549" y="1658" type="line"/>
      <point x="319" y="1658" type="line"/>
      <point x="254" y="1161" type="line"/>
      <point x="80" y="1161" type="line"/>
      <point x="78" y="967" type="line"/>
      <point x="223" y="967" type="line"/>
      <point x="198" y="765" type="line"/>
      <point x="77" y="765" type="line"/>
      <point x="75" y="574" type="line"/>
      <point x="170" y="574" type="line"/>
    </contour>
    <contour>
      <point x="425" y="765" type="line"/>
      <point x="452" y="967" type="line"/>
      <point x="622" y="967" type="line"/>
      <point x="596" y="765" type="line"/>
    </contour>
  </outline>
</glyph>
<glyph name="ampersand" format="1">
  <advance width="1210"/>
  <unicode hex="0026"/>
  <outline>
    <contour>
      <point x="467" y="-21" type="curve" smooth="yes"/>
      <point x="614" y="-21"/>
      <point x="730" y="39"/>
      <point x="803" y="132" type="curve"/>
      <point x="871" y="68"/>
      <point x="951" y="-24"/>
      <point x="1066" y="-24" type="curve" smooth="yes"/>
      <point x="1080" y="-24"/>
      <point x="1093" y="-22"/>
      <point x="1106" y="-19" type="curve"/>
      <point x="1106" y="225" type="line"/>
      <point x="1047" y="227"/>
      <point x="988" y="264"/>
      <point x="960" y="299" type="curve"/>
      <point x="1032" y="419"/>
      <point x="1102" y="592"/>
      <point x="1102" y="790" type="curve"/>
      <point x="868" y="790" type="line"/>
      <point x="858" y="677"/>
      <point x="838" y="534"/>
      <point x="803" y="463" type="curve"/>
      <point x="589" y="826" type="line"/>
      <point x="705" y="947"/>
      <point x="881" y="1120"/>
      <point x="881" y="1348" type="curve" smooth="yes"/>
      <point x="881" y="1555"/>
      <point x="721" y="1678"/>
      <point x="519" y="1678" type="curve" smooth="yes"/>
      <point x="300" y="1678"/>
      <point x="165" y="1519"/>
      <point x="165" y="1306" type="curve" smooth="yes"/>
      <point x="165" y="1136"/>
      <point x="269" y="993"/>
      <point x="337" y="852" type="curve"/>
      <point x="216" y="739"/>
      <point x="102" y="568"/>
      <point x="102" y="359" type="curve" smooth="yes"/>
      <point x="102" y="134"/>
      <point x="244" y="-21"/>
    </contour>
    <contour>
      <point x="470" y="188" type="curve" smooth="yes"/>
      <point x="393" y="188"/>
      <point x="352" y="267"/>
      <point x="352" y="369" type="curve" smooth="yes"/>
      <point x="352" y="470"/>
      <point x="387" y="579"/>
      <point x="441" y="658" type="curve"/>
      <point x="448" y="640"/>
      <point x="654" y="287"/>
      <point x="654" y="287" type="curve"/>
      <point x="611" y="232"/>
      <point x="550" y="188"/>
    </contour>
    <contour>
      <point x="501" y="975" type="curve"/>
      <point x="472" y="1057"/>
      <point x="418" y="1198"/>
      <point x="418" y="1313" type="curve" smooth="yes"/>
      <point x="418" y="1393"/>
      <point x="453" y="1465"/>
      <point x="525" y="1465" type="curve" smooth="yes"/>
      <point x="588" y="1465"/>
      <point x="633" y="1423"/>
      <point x="633" y="1355" type="curve" smooth="yes"/>
      <point x="633" y="1224"/>
      <point x="558" y="1057"/>
    </contour>
  </outline>
</glyph>
<glyph name="quotesingle" format="1">
  <advance width="670"/>
  <unicode hex="0027"/>
  <outline>
    <contour>
      <point x="209" y="1105" type="line"/>
      <point x="350" y="1105" type="line"/>
      <point x="501" y="1658" type="line"/>
      <point x="267" y="1658" type="line"/>
    </contour>
  </outline>
</glyph>
<glyph name="parenright" format="1">
  <advance width="585"/>
  <unicode hex="0029"/>
  <outline>
    <contour>
      <point x="-27" y="-396" type="line"/>
      <point x="397" y="-397"/>
      <point x="473" y="132"/>
      <point x="526" y="638" type="curve"/>
      <point x="580" y="1158"/>
      <point x="615" y="1676"/>
      <point x="190" y="1675" type="curve"/>
      <point x="171" y="1488" type="line"/>
      <point x="348" y="1488"/>
      <point x="315" y="1089"/>
      <point x="268" y="638" type="curve"/>
      <point x="220" y="189"/>
      <point x="166" y="-208"/>
      <point x="-7" y="-208" type="curve"/>
    </contour>
  </outline>
</glyph>
<glyph name="asterisk" format="1">
  <advance width="845"/>
  <unicode hex="002A"/>
  <outline>
    <contour>
      <point x="332" y="938" type="line"/>
      <point x="448" y="1178" type="line"/>
      <point x="564" y="938" type="line"/>
      <point x="732" y="1037" type="line"/>
      <point x="576" y="1252" type="line"/>
      <point x="807" y="1341" type="line"/>
      <point x="742" y="1513" type="line"/>
      <point x="527" y="1396" type="line"/>
      <point x="553" y="1657" type="line"/>
      <point x="344" y="1657" type="line"/>
      <point x="370" y="1397" type="line"/>
      <point x="155" y="1513" type="line"/>
      <point x="91" y="1342" type="line"/>
      <point x="321" y="1254" type="line"/>
      <point x="167" y="1037" type="line"/>
    </contour>
  </outline>
</glyph>
<glyph name="comma" format="1">
  <advance width="424"/>
  <unicode hex="002C"/>
  <outline>
    <contour>
      <point x="43" y="-281" type="line"/>
      <point x="200" y="-248"/>
      <point x="285" y="-153"/>
      <point x="303" y="17" type="curve" smooth="yes"/>
      <point x="329" y="267" type="line"/>
      <point x="59" y="267" type="line"/>
      <point x="30" y="0" type="line"/>
      <point x="174" y="0" type="line"/>
      <point x="164" y="-96"/>
      <point x="100" y="-157"/>
      <point x="23" y="-176" type="curve"/>
    </contour>
  </outline>
</glyph>
<glyph name="hyphen" format="1">
  <advance width="717"/>
  <unicode hex="002D"/>
  <outline>
    <contour>
      <point x="121" y="551" type="line"/>
      <point x="611" y="551" type="line"/>
      <point x="631" y="743" type="line"/>
      <point x="141" y="743" type="line"/>
    </contour>
  </outline>
</glyph>
<glyph name="one" format="1">
  <advance width="1055"/>
  <unicode hex="0031"/>
  <outline>
    <contour>
      <point x="403" y="0" type="line"/>
      <point x="681" y="0" type="line"/>
      <point x="855" y="1658" type="line"/>
      <point x="642" y="1658" type="line"/>
      <point x="558" y="1567"/>
      <point x="373" y="1505"/>
      <point x="287" y="1479" type="curve"/>
      <point x="265" y="1270" type="line"/>
      <point x="543" y="1339" type="line"/>
    </contour>
  </outline>
</glyph>
<glyph name="four" format="1">
  <advance width="1044"/>
  <unicode hex="0034"/>
  <outline>
    <contour>
      <point x="560" y="0" type="line"/>
      <point x="828" y="0" type="line"/>
      <point x="828" y="405" type="line"/>
      <point x="1000" y="405" type="line"/>
      <point x="1000" y="641" type="line"/>
      <point x="828" y="641" type="line"/>
      <point x="828" y="1659" type="line"/>
      <point x="494" y="1659" type="line"/>
      <point x="73" y="667" type="line"/>
      <point x="73" y="405" type="line"/>
      <point x="560" y="405" type="line"/>
    </contour>
    <contour>
      <point x="319" y="641" type="line"/>
      <point x="560" y="1344" type="line"/>
      <point x="560" y="641" type="line"/>
    </contour>
  </outline>
</glyph>
<glyph name="seven" format="1">
  <advance width="1055"/>
  <unicode hex="0037"/>
  <outline>
    <contour>
      <point x="255" y="0" type="line"/>
      <point x="524" y="0" type="line"/>
      <point x="1005" y="1475" type="line"/>
      <point x="1021" y="1658" type="line"/>
      <point x="268" y="1658" type="line"/>
      <point x="246" y="1444" type="line"/>
      <point x="726" y="1444" type="line"/>
    </contour>
  </outline>
</glyph>
<glyph name="eight" format="1">
  <advance width="1054"/>
  <unicode hex="0038"/>
  <outline>
    <contour>
      <point x="483" y="-21" type="curve" smooth="yes"/>
      <point x="800" y="-21"/>
      <point x="936" y="176"/>
      <point x="965" y="481" type="curve" smooth="yes"/>
      <point x="984" y="671"/>
      <point x="928" y="799"/>
      <point x="811" y="874" type="curve"/>
      <point x="916" y="946"/>
      <point x="998" y="1058"/>
      <point x="1019" y="1239" type="curve" smooth="yes"/>
      <point x="1049" y="1510"/>
      <point x="935" y="1677"/>
      <point x="662" y="1677" type="curve" smooth="yes"/>
      <point x="389" y="1677"/>
      <point x="237" y="1511"/>
      <point x="210" y="1239" type="curve" smooth="yes"/>
      <point x="193" y="1058"/>
      <point x="252" y="947"/>
      <point x="342" y="874" type="curve"/>
      <point x="207" y="800"/>
      <point x="127" y="671"/>
      <point x="106" y="481" type="curve" smooth="yes"/>
      <point x="73" y="177"/>
      <point x="167" y="-21"/>
    </contour>
    <contour>
      <point x="506" y="192" type="curve" smooth="yes"/>
      <point x="365" y="192"/>
      <point x="359" y="334"/>
      <point x="373" y="468" type="curve" smooth="yes"/>
      <point x="388" y="605"/>
      <point x="432" y="744"/>
      <point x="564" y="744" type="curve" smooth="yes"/>
      <point x="696" y="744"/>
      <point x="708" y="605"/>
      <point x="694" y="468" type="curve"/>
      <point x="680" y="337"/>
      <point x="647" y="192"/>
    </contour>
    <contour>
      <point x="589" y="988" type="curve" smooth="yes"/>
      <point x="481" y="988"/>
      <point x="464" y="1110"/>
      <point x="479" y="1252" type="curve" smooth="yes"/>
      <point x="491" y="1369"/>
      <point x="537" y="1465"/>
      <point x="640" y="1465" type="curve" smooth="yes"/>
      <point x="740" y="1465"/>
      <point x="765" y="1367"/>
      <point x="753" y="1252" type="curve" smooth="yes"/>
      <point x="739" y="1110"/>
      <point x="695" y="988"/>
    </contour>
  </outline>
</glyph>
<glyph name="colon" format="1">
  <advance width="467"/>
  <unicode hex="003A"/>
  <outline>
    <contour>
      <point x="92" y="171" type="line"/>
      <point x="359" y="171" type="line"/>
      <point x="387" y="436" type="line"/>
      <point x="120" y="436" type="line"/>
    </contour>
    <contour>
      <point x="163" y="843" type="line"/>
      <point x="430" y="843" type="line"/>
      <point x="458" y="1109" type="line"/>
      <point x="192" y="1109" type="line"/>
    </contour>
  </outline>
</glyph>
<glyph name="A" format="1">
  <advance width="1058"/>
  <unicode hex="0041"/>
  <outline>
    <contour>
      <point x="-12" y="0" type="line"/>
      <point x="266" y="0" type="line"/>
      <point x="376" y="388" type="line"/>
      <point x="667" y="388" type="line"/>
      <point x="695" y="0" type="line"/>
      <point x="971" y="0" type="line"/>
      <point x="806" y="1658" type="line"/>
      <point x="501" y="1658" type="line"/>
    </contour>
    <contour>
      <point x="429" y="583" type="line"/>
      <point x="614" y="1268" type="line"/>
      <point x="656" y="583" type="line"/>
    </contour>
  </outline>
</glyph>
<glyph name="B" format="1">
  <advance width="1131"/>
  <unicode hex="0042"/>
  <outline>
    <contour>
      <point x="74" y="0" type="line"/>
      <point x="547" y="0" type="line" smooth="yes"/>
      <point x="849" y="0"/>
      <point x="1027" y="168"/>
      <point x="1058" y="480" type="curve" smooth="yes"/>
      <point x="1083" y="724"/>
      <point x="1001" y="854"/>
      <point x="810" y="892" type="curve"/>
      <point x="969" y="914"/>
      <point x="1066" y="1025"/>
      <point x="1090" y="1236" type="curve" smooth="yes"/>
      <point x="1126" y="1558"/>
      <point x="945" y="1658"/>
      <point x="652" y="1658" type="curve" smooth="yes"/>
      <point x="248" y="1658" type="line"/>
    </contour>
    <contour>
      <point x="392" y="209" type="line"/>
      <point x="451" y="771" type="line"/>
      <point x="548" y="771" type="line" smooth="yes"/>
      <point x="736" y="771"/>
      <point x="796" y="681"/>
      <point x="776" y="482" type="curve" smooth="yes"/>
      <point x="756" y="294"/>
      <point x="695" y="209"/>
      <point x="506" y="209" type="curve" smooth="yes"/>
    </contour>
    <contour>
      <point x="473" y="980" type="line"/>
      <point x="522" y="1450" type="line"/>
      <point x="563" y="1450" type="line" smooth="yes"/>
      <point x="760" y="1450"/>
      <point x="853" y="1428"/>
      <point x="832" y="1233" type="curve" smooth="yes"/>
      <point x="814" y="1055"/>
      <point x="754" y="980"/>
      <point x="569" y="980" type="curve" smooth="yes"/>
    </contour>
  </outline>
</glyph>
<glyph name="D" format="1">
  <advance width="1126"/>
  <unicode hex="0044"/>
  <outline>
    <contour>
      <point x="392" y="208" type="line"/>
      <point x="522" y="1446" type="line"/>
      <point x="607" y="1446" type="line" smooth="yes"/>
      <point x="814" y="1446"/>
      <point x="822" y="1362"/>
      <point x="800" y="1148" type="curve" smooth="yes"/>
      <point x="737" y="552" type="line" smooth="yes"/>
      <point x="713" y="325"/>
      <point x="699" y="208"/>
      <point x="481" y="208" type="curve" smooth="yes"/>
    </contour>
    <contour>
      <point x="74" y="0" type="line"/>
      <point x="470" y="0" type="line" smooth="yes"/>
      <point x="852" y="0"/>
      <point x="998" y="176"/>
      <point x="1037" y="544" type="curve" smooth="yes"/>
      <point x="1100" y="1142" type="line" smooth="yes"/>
      <point x="1137" y="1499"/>
      <point x="1028" y="1658"/>
      <point x="631" y="1658" type="curve" smooth="yes"/>
      <point x="248" y="1658" type="line"/>
    </contour>
  </outline>
</glyph>
<glyph name="E" format="1">
  <advance width="873"/>
  <unicode hex="0045"/>
  <outline>
    <contour>
      <point x="124" y="0" type="line"/>
      <point x="823" y="0" type="line"/>
      <point x="823" y="209" type="line"/>
      <point x="426" y="209" type="line"/>
      <point x="426" y="756" type="line"/>
      <point x="736" y="756" type="line"/>
      <point x="736" y="969" type="line"/>
      <point x="426" y="969" type="line"/>
      <point x="426" y="1445" type="line"/>
      <point x="818" y="1445" type="line"/>
      <point x="818" y="1658" type="line"/>
      <point x="124" y="1658" type="line"/>
    </contour>
  </outline>
</glyph>
<glyph name="H" format="1">
  <advance width="1195"/>
  <unicode hex="0048"/>
  <outline>
    <contour>
      <point x="127" y="0" type="line"/>
      <point x="429" y="0" type="line"/>
      <point x="429" y="750" type="line"/>
      <point x="766" y="750" type="line"/>
      <point x="766" y="0" type="line"/>
      <point x="1068" y="0" type="line"/>
      <point x="1068" y="1658" type="line"/>
      <point x="766" y="1658" type="line"/>
      <point x="766" y="965" type="line"/>
      <point x="429" y="965" type="line"/>
      <point x="429" y="1658" type="line"/>
      <point x="127" y="1658" type="line"/>
    </contour>
  </outline>
</glyph>
<glyph name="I" format="1">
  <advance width="557"/>
  <unicode hex="0049"/>
  <outline>
    <contour>
      <point x="84" y="0" type="line"/>
      <point x="375" y="0" type="line"/>
      <point x="549" y="1658" type="line"/>
      <point x="258" y="1658" type="line"/>
    </contour>
  </outline>
</glyph>
<glyph name="K" format="1">
  <advance width="1085"/>
  <unicode hex="004B"/>
  <outline>
    <contour>
      <point x="124" y="0" type="line"/>
      <point x="426" y="0" type="line"/>
      <point x="426" y="672" type="line"/>
      <point x="486" y="780" type="line"/>
      <point x="772" y="0" type="line"/>
      <point x="1073" y="0" type="line"/>
      <point x="723" y="916" type="line"/>
      <point x="1040" y="1658" type="line"/>
      <point x="752" y="1658" type="line"/>
      <point x="426" y="938" type="line"/>
      <point x="426" y="1658" type="line"/>
      <point x="124" y="1658" type="line"/>
    </contour>
  </outline>
</glyph>
<glyph name="L" format="1">
  <advance width="851"/>
  <unicode hex="004C"/>
  <outline>
    <contour>
      <point x="74" y="0" type="line"/>
      <point x="768" y="0" type="line"/>
      <point x="790" y="205" type="line"/>
      <point x="391" y="205" type="line"/>
      <point x="544" y="1658" type="line"/>
      <point x="248" y="1658" type="line"/>
    </contour>
  </outline>
</glyph>
<glyph name="M" format="1">
  <advance width="1390"/>
  <unicode hex="004D"/>
  <outline>
    <contour>
      <point x="70" y="0" type="line"/>
      <point x="298" y="0" type="line"/>
      <point x="437" y="1149" type="line"/>
      <point x="561" y="0" type="line"/>
      <point x="733" y="0" type="line"/>
      <point x="1097" y="1147" type="line"/>
      <point x="995" y="0" type="line"/>
      <point x="1220" y="0" type="line"/>
      <point x="1366" y="1658" type="line"/>
      <point x="1070" y="1658" type="line"/>
      <point x="694" y="473" type="line"/>
      <point x="574" y="1658" type="line"/>
      <point x="272" y="1658" type="line"/>
    </contour>
  </outline>
</glyph>
<glyph name="N" format="1">
  <advance width="1109"/>
  <unicode hex="004E"/>
  <outline>
    <contour>
      <point x="74" y="0" type="line"/>
      <point x="325" y="0" type="line"/>
      <point x="430" y="1000" type="line"/>
      <point x="742" y="0" type="line"/>
      <point x="934" y="0" type="line"/>
      <point x="1108" y="1658" type="line"/>
      <point x="863" y="1658" type="line"/>
      <point x="763" y="704" type="line"/>
      <point x="451" y="1658" type="line"/>
      <point x="248" y="1658" type="line"/>
    </contour>
  </outline>
</glyph>
<glyph name="O" format="1">
  <advance width="1146"/>
  <unicode hex="004F"/>
  <outline>
    <contour>
      <point x="543" y="200" type="curve" smooth="yes"/>
      <point x="390" y="200"/>
      <point x="380" y="311"/>
      <point x="396" y="458" type="curve" smooth="yes"/>
      <point x="474" y="1206" type="line" smooth="yes"/>
      <point x="489" y="1353"/>
      <point x="522" y="1458"/>
      <point x="676" y="1458" type="curve" smooth="yes"/>
      <point x="829" y="1458"/>
      <point x="840" y="1353"/>
      <point x="825" y="1206" type="curve" smooth="yes"/>
      <point x="747" y="458" type="line" smooth="yes"/>
      <point x="731" y="311"/>
      <point x="697" y="200"/>
    </contour>
    <contour>
      <point x="520" y="-20" type="curve" smooth="yes"/>
      <point x="871" y="-20"/>
      <point x="1018" y="189"/>
      <point x="1053" y="526" type="curve" smooth="yes"/>
      <point x="1118" y="1139" type="line" smooth="yes"/>
      <point x="1154" y="1476"/>
      <point x="1050" y="1677"/>
      <point x="699" y="1677" type="curve" smooth="yes"/>
      <point x="346" y="1677"/>
      <point x="202" y="1478"/>
      <point x="167" y="1139" type="curve" smooth="yes"/>
      <point x="102" y="526" type="line" smooth="yes"/>
      <point x="67" y="186"/>
      <point x="168" y="-20"/>
    </contour>
  </outline>
</glyph>
<glyph name="W" format="1">
  <advance width="1470"/>
  <unicode hex="0057"/>
  <outline>
    <contour>
      <point x="304" y="0" type="line"/>
      <point x="552" y="0" type="line"/>
      <point x="738" y="1107" type="line"/>
      <point x="925" y="0" type="line"/>
      <point x="1166" y="0" type="line"/>
      <point x="1403" y="1658" type="line"/>
      <point x="1154" y="1658" type="line"/>
      <point x="1018" y="588" type="line"/>
      <point x="837" y="1658" type="line"/>
      <point x="634" y="1658" type="line"/>
      <point x="457" y="589" type="line"/>
      <point x="321" y="1658" type="line"/>
      <point x="67" y="1658" type="line"/>
    </contour>
  </outline>
</glyph>
<glyph name="backslash" format="1">
  <advance width="806"/>
  <unicode hex="005C"/>
  <outline>
    <contour>
      <point x="488" y="0" type="line"/>
      <point x="683" y="0" type="line"/>
      <point x="392" y="1658" type="line"/>
      <point x="196" y="1658" type="line"/>
    </contour>
  </outline>
</glyph>
<glyph name="asciicircum" format="1">
  <advance width="953"/>
  <unicode hex="005E"/>
  <outline>
    <contour>
      <point x="68" y="979" type="line"/>
      <point x="319" y="979" type="line"/>
      <point x="476" y="1433" type="line"/>
      <point x="634" y="979" type="line"/>
      <point x="886" y="979" type="line"/>
      <point x="601" y="1658" type="line"/>
      <point x="351" y="1658" type="line"/>
    </contour>
  </outline>
</glyph>
<glyph name="underscore" format="1">
  <advance width="727"/>
  <unicode hex="005F"/>
  <outline>
    <contour>
      <point x="-82" y="-310" type="line"/>
      <point x="645" y="-310" type="line"/>
      <point x="665" y="-114" type="line"/>
      <point x="-62" y="-114" type="line"/>
    </contour>
  </outline>
</glyph>
<glyph name="grave" format="1">
  <advance width="610"/>
  <unicode hex="0060"/>
  <outline>
    <contour>
      <point x="350" y="1249" type="line"/>
      <point x="508" y="1249" type="line"/>
      <point x="387" y="1658" type="line"/>
      <point x="103" y="1658" type="line"/>
    </contour>
  </outline>
</glyph>
<glyph name="a" format="1">
  <advance width="922"/>
  <unicode hex="0061"/>
  <outline>
    <contour>
      <point x="282" y="-18" type="curve"/>
      <point x="414" y="-18"/>
      <point x="498" y="78"/>
      <point x="536" y="174" type="curve"/>
      <point x="536" y="113"/>
      <point x="548" y="0"/>
      <point x="548" y="0" type="curve"/>
      <point x="796" y="0" type="line"/>
      <point x="794" y="74"/>
      <point x="791" y="165"/>
      <point x="805" y="297" type="curve" smooth="yes"/>
      <point x="862" y="837" type="line" smooth="yes"/>
      <point x="886" y="1063"/>
      <point x="798" y="1202"/>
      <point x="558" y="1202" type="curve" smooth="yes"/>
      <point x="324" y="1202"/>
      <point x="177" y="1096"/>
      <point x="135" y="844" type="curve"/>
      <point x="133" y="833"/>
      <point x="130" y="812"/>
      <point x="128" y="801" type="curve"/>
      <point x="392" y="790" type="line"/>
      <point x="403" y="863" type="line" smooth="yes"/>
      <point x="411" y="937"/>
      <point x="439" y="997"/>
      <point x="515" y="997" type="curve" smooth="yes"/>
      <point x="597" y="997"/>
      <point x="603" y="937"/>
      <point x="593" y="838" type="curve" smooth="yes"/>
      <point x="583" y="740" type="line"/>
      <point x="363" y="657"/>
      <point x="92" y="576"/>
      <point x="58" y="264" type="curve" smooth="yes"/>
      <point x="44" y="126"/>
      <point x="128" y="-17"/>
    </contour>
    <contour>
      <point x="410" y="197" type="curve" smooth="yes"/>
      <point x="349" y="197"/>
      <point x="321" y="251"/>
      <point x="330" y="336" type="curve" smooth="yes"/>
      <point x="343" y="458"/>
      <point x="462" y="542"/>
      <point x="568" y="597" type="curve"/>
      <point x="534" y="272" type="line"/>
      <point x="514" y="248"/>
      <point x="459" y="197"/>
    </contour>
  </outline>
</glyph>
<glyph name="b" format="1">
  <advance width="973"/>
  <unicode hex="0062"/>
  <outline>
    <contour>
      <point x="551" y="-18" type="curve" smooth="yes"/>
      <point x="762" y="-18"/>
      <point x="855" y="189"/>
      <point x="879" y="420" type="curve" smooth="yes"/>
      <point x="919" y="797" type="line" smooth="yes"/>
      <point x="934" y="941"/>
      <point x="922" y="1200"/>
      <point x="698" y="1202" type="curve" smooth="yes"/>
      <point x="604" y="1203"/>
      <point x="521" y="1158"/>
      <point x="450" y="1093" type="curve"/>
      <point x="509" y="1658" type="line"/>
      <point x="235" y="1658" type="line"/>
      <point x="61" y="0" type="line"/>
      <point x="335" y="0" type="line"/>
      <point x="344" y="87" type="line"/>
      <point x="399" y="27"/>
      <point x="469" y="-18"/>
    </contour>
    <contour>
      <point x="481" y="180" type="curve" smooth="yes"/>
      <point x="431" y="181"/>
      <point x="390" y="196"/>
      <point x="357" y="218" type="curve"/>
      <point x="436" y="961" type="line"/>
      <point x="474" y="988"/>
      <point x="518" y="1008"/>
      <point x="561" y="1009" type="curve" smooth="yes"/>
      <point x="651" y="1011"/>
      <point x="656" y="911"/>
      <point x="646" y="807" type="curve" smooth="yes"/>
      <point x="604" y="413" type="line" smooth="yes"/>
      <point x="592" y="290"/>
      <point x="571" y="180"/>
    </contour>
  </outline>
</glyph>
<glyph name="d" format="1">
  <advance width="963"/>
  <unicode hex="0064"/>
  <outline>
    <contour>
      <point x="326" y="-18" type="curve" smooth="yes"/>
      <point x="401" y="-18"/>
      <point x="474" y="19"/>
      <point x="540" y="80" type="curve"/>
      <point x="531" y="0" type="line"/>
      <point x="805" y="0" type="line"/>
      <point x="979" y="1658" type="line"/>
      <point x="705" y="1658" type="line"/>
      <point x="648" y="1111" type="line"/>
      <point x="597" y="1164"/>
      <point x="530" y="1202"/>
      <point x="449" y="1202" type="curve" smooth="yes"/>
      <point x="228" y="1202"/>
      <point x="141" y="991"/>
      <point x="116" y="747" type="curve" smooth="yes"/>
      <point x="82" y="417" type="line" smooth="yes"/>
      <point x="49" y="108"/>
      <point x="134" y="-19"/>
    </contour>
    <contour>
      <point x="440" y="180" type="curve" smooth="yes"/>
      <point x="347" y="180"/>
      <point x="341" y="279"/>
      <point x="354" y="396" type="curve" smooth="yes"/>
      <point x="398" y="820" type="line" smooth="yes"/>
      <point x="408" y="915"/>
      <point x="442" y="1006"/>
      <point x="526" y="1006" type="curve" smooth="yes"/>
      <point x="564" y="1006"/>
      <point x="601" y="991"/>
      <point x="633" y="969" type="curve"/>
      <point x="554" y="212" type="line"/>
      <point x="511" y="190"/>
      <point x="470" y="180"/>
    </contour>
  </outline>
</glyph>
<glyph name="e" format="1">
  <advance width="914"/>
  <unicode hex="0065"/>
  <outline>
    <contour>
      <point x="466" y="-19" type="curve" smooth="yes"/>
      <point x="710" y="-19"/>
      <point x="830" y="118"/>
      <point x="830" y="360" type="curve" smooth="yes"/>
      <point x="830" y="433" type="line"/>
      <point x="565" y="433" type="line"/>
      <point x="565" y="339" type="line" smooth="yes"/>
      <point x="565" y="247"/>
      <point x="545" y="185"/>
      <point x="465" y="185" type="curve" smooth="yes"/>
      <point x="365" y="185"/>
      <point x="363" y="283"/>
      <point x="363" y="400" type="curve" smooth="yes"/>
      <point x="363" y="578" type="line"/>
      <point x="831" y="578" type="line"/>
      <point x="831" y="733" type="line" smooth="yes"/>
      <point x="831" y="1027"/>
      <point x="754" y="1202"/>
      <point x="465" y="1202" type="curve" smooth="yes"/>
      <point x="191" y="1202"/>
      <point x="85" y="1042"/>
      <point x="85" y="759" type="curve" smooth="yes"/>
      <point x="85" y="424" type="line" smooth="yes"/>
      <point x="85" y="144"/>
      <point x="186" y="-19"/>
    </contour>
    <contour>
      <point x="363" y="718" type="line"/>
      <point x="363" y="795" type="line" smooth="yes"/>
      <point x="363" y="948"/>
      <point x="384" y="999"/>
      <point x="463" y="999" type="curve" smooth="yes"/>
      <point x="541" y="999"/>
      <point x="565" y="947"/>
      <point x="565" y="831" type="curve" smooth="yes"/>
      <point x="565" y="718" type="line"/>
    </contour>
  </outline>
</glyph>
<glyph name="g" format="1">
  <advance width="943"/>
  <unicode hex="0067"/>
  <outline>
    <contour>
      <point x="425" y="-359" type="curve" smooth="yes"/>
      <point x="699" y="-359"/>
      <point x="811" y="-260"/>
      <point x="834" y="-54" type="curve" smooth="yes"/>
      <point x="852" y="120"/>
      <point x="775" y="214"/>
      <point x="579" y="234" type="curve" smooth="yes"/>
      <point x="546" y="239"/>
      <point x="389" y="253"/>
      <point x="370" y="256" type="curve" smooth="yes"/>
      <point x="300" y="263"/>
      <point x="270" y="278"/>
      <point x="271" y="307" type="curve" smooth="yes"/>
      <point x="272" y="333"/>
      <point x="293" y="361"/>
      <point x="311" y="384" type="curve"/>
      <point x="327" y="377"/>
      <point x="411" y="362"/>
      <point x="450" y="362" type="curve" smooth="yes"/>
      <point x="708" y="362"/>
      <point x="818" y="526"/>
      <point x="844" y="769" type="curve" smooth="yes"/>
      <point x="853" y="856"/>
      <point x="840" y="950"/>
      <point x="822" y="994" type="curve"/>
      <point x="856" y="1014"/>
      <point x="986" y="1060"/>
      <point x="1031" y="1071" type="curve"/>
      <point x="983" y="1227" type="line"/>
      <point x="942" y="1209" type="line"/>
      <point x="864" y="1173"/>
      <point x="793" y="1111"/>
      <point x="769" y="1085" type="curve"/>
      <point x="732" y="1164"/>
      <point x="650" y="1202"/>
      <point x="529" y="1202" type="curve" smooth="yes"/>
      <point x="298" y="1202"/>
      <point x="152" y="1068"/>
      <point x="121" y="773" type="curve" smooth="yes"/>
      <point x="102" y="594"/>
      <point x="142" y="506"/>
      <point x="218" y="443" type="curve"/>
      <point x="123" y="371"/>
      <point x="63" y="318"/>
      <point x="60" y="225" type="curve" smooth="yes"/>
      <point x="58" y="170"/>
      <point x="85" y="122"/>
      <point x="171" y="91" type="curve"/>
      <point x="83" y="42"/>
      <point x="-9" y="-41"/>
      <point x="-22" y="-161" type="curve" smooth="yes"/>
      <point x="-42" y="-348"/>
      <point x="215" y="-359"/>
    </contour>
    <contour>
      <point x="444" y="-164" type="curve" smooth="yes"/>
      <point x="253" y="-164"/>
      <point x="225" y="-134"/>
      <point x="231" y="-74" type="curve" smooth="yes"/>
      <point x="236" y="-17"/>
      <point x="286" y="36"/>
      <point x="307" y="58" type="curve"/>
      <point x="494" y="41" type="line" smooth="yes"/>
      <point x="601" y="31"/>
      <point x="630" y="1"/>
      <point x="620" y="-69" type="curve" smooth="yes"/>
      <point x="610" y="-136"/>
      <point x="559" y="-164"/>
    </contour>
    <contour>
      <point x="462" y="542" type="curve" smooth="yes"/>
      <point x="364" y="542"/>
      <point x="359" y="632"/>
      <point x="375" y="779" type="curve"/>
      <point x="392" y="946"/>
      <point x="413" y="1024"/>
      <point x="515" y="1024" type="curve" smooth="yes"/>
      <point x="617" y="1024"/>
      <point x="619" y="945"/>
      <point x="602" y="779" type="curve"/>
      <point x="584" y="615"/>
      <point x="562" y="542"/>
    </contour>
  </outline>
</glyph>
<glyph name="i" format="1">
  <advance width="505"/>
  <unicode hex="0069"/>
  <outline>
    <contour>
      <point x="67" y="0" type="line"/>
      <point x="341" y="0" type="line"/>
      <point x="465" y="1184" type="line"/>
      <point x="191" y="1184" type="line"/>
    </contour>
    <contour>
      <point x="211" y="1370" type="line"/>
      <point x="486" y="1370" type="line"/>
      <point x="511" y="1606" type="line"/>
      <point x="236" y="1606" type="line"/>
    </contour>
  </outline>
</glyph>
<glyph name="j" format="1">
  <advance width="513"/>
  <unicode hex="006A"/>
  <outline>
    <contour>
      <point x="-113" y="-304" type="line"/>
      <point x="-75" y="-317"/>
      <point x="-22" y="-323"/>
      <point x="27" y="-323" type="curve" smooth="yes"/>
      <point x="216" y="-323"/>
      <point x="337" y="-208"/>
      <point x="357" y="-23" type="curve" smooth="yes"/>
      <point x="483" y="1184" type="line"/>
      <point x="209" y="1184" type="line"/>
      <point x="86" y="8" type="line" smooth="yes"/>
      <point x="78" y="-70"/>
      <point x="40" y="-114"/>
      <point x="-34" y="-114" type="curve" smooth="yes"/>
      <point x="-51" y="-114"/>
      <point x="-77" y="-111"/>
      <point x="-93" y="-107" type="curve"/>
    </contour>
    <contour>
      <point x="228" y="1370" type="line"/>
      <point x="505" y="1370" type="line"/>
      <point x="530" y="1606" type="line"/>
      <point x="253" y="1606" type="line"/>
    </contour>
  </outline>
</glyph>
<glyph name="k" format="1">
  <advance width="975"/>
  <unicode hex="006B"/>
  <outline>
    <contour>
      <point x="61" y="2" type="line"/>
      <point x="334" y="2" type="line"/>
      <point x="381" y="454" type="line"/>
      <point x="486" y="584" type="line"/>
      <point x="635" y="0" type="line"/>
      <point x="921" y="0" type="line"/>
      <point x="712" y="711" type="line"/>
      <point x="1050" y="1184" type="line"/>
      <point x="754" y="1183" type="line"/>
      <point x="408" y="708" type="line"/>
      <point x="508" y="1660" type="line"/>
      <point x="235" y="1660" type="line"/>
    </contour>
  </outline>
</glyph>
<glyph name="n" format="1">
  <advance width="963"/>
  <unicode hex="006E"/>
  <outline>
    <contour>
      <point x="58" y="0" type="line"/>
      <point x="332" y="0" type="line"/>
      <point x="431" y="940" type="line"/>
      <point x="477" y="972"/>
      <point x="525" y="995"/>
      <point x="564" y="996" type="curve" smooth="yes"/>
      <point x="631" y="996"/>
      <point x="638" y="952"/>
      <point x="631" y="885" type="curve" smooth="yes"/>
      <point x="539" y="0" type="line"/>
      <point x="813" y="0" type="line"/>
      <point x="912" y="948" type="line" smooth="yes"/>
      <point x="926" y="1072"/>
      <point x="893" y="1202"/>
      <point x="747" y="1202" type="curve" smooth="yes"/>
      <point x="635" y="1202"/>
      <point x="535" y="1145"/>
      <point x="444" y="1068" type="curve"/>
      <point x="456" y="1184" type="line"/>
      <point x="182" y="1184" type="line"/>
    </contour>
  </outline>
</glyph>
<glyph name="o" format="1">
  <advance width="923"/>
  <unicode hex="006F"/>
  <outline>
    <contour>
      <point x="429" y="176" type="curve" smooth="yes"/>
      <point x="332" y="176"/>
      <point x="336" y="274"/>
      <point x="347" y="380" type="curve" smooth="yes"/>
      <point x="392" y="803" type="line" smooth="yes"/>
      <point x="403" y="908"/>
      <point x="419" y="1008"/>
      <point x="517" y="1008" type="curve" smooth="yes"/>
      <point x="615" y="1008"/>
      <point x="610" y="909"/>
      <point x="599" y="803" type="curve" smooth="yes"/>
      <point x="554" y="380" type="line" smooth="yes"/>
      <point x="544" y="273"/>
      <point x="528" y="176"/>
    </contour>
    <contour>
      <point x="408" y="-18" type="curve" smooth="yes"/>
      <point x="670" y="-18"/>
      <point x="802" y="139"/>
      <point x="830" y="399" type="curve" smooth="yes"/>
      <point x="870" y="785" type="line" smooth="yes"/>
      <point x="898" y="1045"/>
      <point x="798" y="1202"/>
      <point x="537" y="1202" type="curve" smooth="yes"/>
      <point x="275" y="1202"/>
      <point x="145" y="1044"/>
      <point x="117" y="785" type="curve" smooth="yes"/>
      <point x="77" y="399" type="line" smooth="yes"/>
      <point x="50" y="139"/>
      <point x="147" y="-18"/>
    </contour>
  </outline>
</glyph>
<glyph name="q" format="1">
  <advance width="971"/>
  <unicode hex="0071"/>
  <outline>
    <contour>
      <point x="585" y="-390" type="line"/>
      <point x="865" y="-390" type="line"/>
      <point x="865" y="1184" type="line"/>
      <point x="585" y="1184" type="line"/>
      <point x="585" y="1108" type="line"/>
      <point x="527" y="1163"/>
      <point x="455" y="1202"/>
      <point x="373" y="1202" type="curve" smooth="yes"/>
      <point x="154" y="1202"/>
      <point x="88" y="996"/>
      <point x="88" y="755" type="curve" smooth="yes"/>
      <point x="88" y="411" type="line" smooth="yes"/>
      <point x="88" y="107"/>
      <point x="186" y="-19"/>
      <point x="377" y="-19" type="curve" smooth="yes"/>
      <point x="454" y="-18"/>
      <point x="524" y="20"/>
      <point x="585" y="83" type="curve"/>
    </contour>
    <contour>
      <point x="476" y="181" type="curve" smooth="yes"/>
      <point x="386" y="181"/>
      <point x="368" y="277"/>
      <point x="368" y="390" type="curve" smooth="yes"/>
      <point x="368" y="824" type="line" smooth="yes"/>
      <point x="368" y="917"/>
      <point x="393" y="1005"/>
      <point x="475" y="1005" type="curve" smooth="yes"/>
      <point x="513" y="1005"/>
      <point x="551" y="990"/>
      <point x="585" y="968" type="curve"/>
      <point x="585" y="214" type="line"/>
      <point x="545" y="192"/>
      <point x="506" y="181"/>
    </contour>
  </outline>
</glyph>
<glyph name="u" format="1">
  <advance width="966"/>
  <unicode hex="0075"/>
  <outline>
    <contour>
      <point x="293" y="-18" type="curve" smooth="yes"/>
      <point x="403" y="-18"/>
      <point x="496" y="36"/>
      <point x="578" y="111" type="curve"/>
      <point x="578" y="0" type="line"/>
      <point x="857" y="0" type="line"/>
      <point x="857" y="1184" type="line"/>
      <point x="578" y="1184" type="line"/>
      <point x="578" y="237" type="line"/>
      <point x="537" y="208"/>
      <point x="495" y="187"/>
      <point x="458" y="187" type="curve" smooth="yes"/>
      <point x="392" y="186"/>
      <point x="378" y="229"/>
      <point x="378" y="295" type="curve" smooth="yes"/>
      <point x="378" y="1184" type="line"/>
      <point x="99" y="1184" type="line"/>
      <point x="99" y="238" type="line" smooth="yes"/>
      <point x="99" y="111"/>
      <point x="147" y="-18"/>
    </contour>
  </outline>
</glyph>
<glyph name="v" format="1">
  <advance width="822"/>
  <unicode hex="0076"/>
  <outline>
    <contour>
      <point x="207" y="0" type="line"/>
      <point x="521" y="0" type="line"/>
      <point x="872" y="1184" type="line"/>
      <point x="608" y="1184" type="line"/>
      <point x="399" y="315" type="line"/>
      <point x="370" y="1184" type="line"/>
      <point x="101" y="1184" type="line"/>
    </contour>
  </outline>
</glyph>
<glyph name="x" format="1">
  <advance width="841"/>
  <unicode hex="0078"/>
  <outline>
    <contour>
      <point x="-32" y="0" type="line"/>
      <point x="212" y="0" type="line"/>
      <point x="386" y="362" type="line"/>
      <point x="513" y="0" type="line"/>
      <point x="782" y="0" type="line"/>
      <point x="573" y="595" type="line"/>
      <point x="890" y="1184" type="line"/>
      <point x="648" y="1184" type="line"/>
      <point x="483" y="853" type="line"/>
      <point x="366" y="1184" type="line"/>
      <point x="98" y="1184" type="line"/>
      <point x="291" y="633" type="line"/>
    </contour>
  </outline>
</glyph>
<glyph name="y" format="1">
  <advance width="855"/>
  <unicode hex="0079"/>
  <outline>
    <contour>
      <point x="113" y="-317" type="line"/>
      <point x="147" y="-317" type="line"/>
      <point x="358" y="-318"/>
      <point x="511" y="-259"/>
      <point x="555" y="-62" type="curve" smooth="yes"/>
      <point x="836" y="1184" type="line"/>
      <point x="563" y="1184" type="line"/>
      <point x="434" y="406" type="line"/>
      <point x="287" y="1184" type="line"/>
      <point x="13" y="1184" type="line"/>
      <point x="67" y="958"/>
      <point x="214" y="413"/>
      <point x="267" y="187" type="curve" smooth="yes"/>
      <point x="280" y="138"/>
      <point x="299" y="60"/>
      <point x="308" y="13" type="curve" smooth="yes"/>
      <point x="327" y="-96"/>
      <point x="277" y="-115"/>
      <point x="113" y="-115" type="curve"/>
    </contour>
  </outline>
</glyph>
<glyph name="z" format="1">
  <advance width="750"/>
  <unicode hex="007A"/>
  <outline>
    <contour>
      <point x="17" y="0" type="line"/>
      <point x="647" y="0" type="line"/>
      <point x="668" y="204" type="line"/>
      <point x="329" y="204" type="line"/>
      <point x="758" y="1028" type="line"/>
      <point x="774" y="1184" type="line"/>
      <point x="173" y="1184" type="line"/>
      <point x="152" y="981" type="line"/>
      <point x="463" y="981" type="line"/>
      <point x="36" y="180" type="line"/>
    </contour>
  </outline>
</glyph>
<glyph name="braceleft" format="1">
  <advance width="695"/>
  <unicode hex="007B"/>
  <outline>
    <contour>
      <point x="639" y="-403" type="curve"/>
      <point x="639" y="-206" type="line"/>
      <point x="499" y="-206"/>
      <point x="491" y="-180"/>
      <point x="491" y="29" type="curve" smooth="yes"/>
      <point x="491" y="295" type="line" smooth="yes"/>
      <point x="491" y="512"/>
      <point x="442" y="615"/>
      <point x="333" y="640" type="curve"/>
      <point x="442" y="665"/>
      <point x="491" y="768"/>
      <point x="491" y="985" type="curve" smooth="yes"/>
      <point x="491" y="1251" type="line" smooth="yes"/>
      <point x="491" y="1460"/>
      <point x="499" y="1486"/>
      <point x="639" y="1486" type="curve"/>
      <point x="639" y="1683" type="line"/>
      <point x="246" y="1683"/>
      <point x="214" y="1606"/>
      <point x="214" y="1259" type="curve" smooth="yes"/>
      <point x="214" y="1020" type="line" smooth="yes"/>
      <point x="214" y="767"/>
      <point x="201" y="738"/>
      <point x="89" y="738" type="curve"/>
      <point x="89" y="542" type="line"/>
      <point x="201" y="542"/>
      <point x="214" y="513"/>
      <point x="214" y="260" type="curve" smooth="yes"/>
      <point x="214" y="21" type="line" smooth="yes"/>
      <point x="214" y="-326"/>
      <point x="246" y="-403"/>
    </contour>
  </outline>
</glyph>
<glyph name="bar" format="1">
  <advance width="516"/>
  <unicode hex="007C"/>
  <outline>
    <contour>
      <point x="52" y="-330" type="line"/>
      <point x="293" y="-330" type="line"/>
      <point x="503" y="1659" type="line"/>
      <point x="262" y="1659" type="line"/>
    </contour>
  </outline>
</glyph>
<glyph name="exclamdown" format="1">
  <advance width="450"/>
  <unicode hex="00A1"/>
  <outline>
    <contour>
      <point x="2" y="-341" type="line"/>
      <point x="276" y="-341" type="line"/>
      <point x="326" y="935" type="line"/>
      <point x="230" y="935" type="line"/>
    </contour>
    <contour>
      <point x="157" y="1049" type="line"/>
      <point x="424" y="1049" type="line"/>
      <point x="452" y="1315" type="line"/>
      <point x="185" y="1315" type="line"/>
    </contour>
  </outline>
</glyph>
<glyph name="yen" format="1">
  <advance width="959"/>
  <unicode hex="00A5"/>
  <outline>
    <contour>
      <point x="351" y="0" type="line"/>
      <point x="639" y="0" type="line"/>
      <point x="639" y="240" type="line"/>
      <point x="813" y="240" type="line"/>
      <point x="813" y="400" type="line"/>
      <point x="639" y="400" type="line"/>
      <point x="639" y="527" type="line"/>
      <point x="813" y="527" type="line"/>
      <point x="813" y="688" type="line"/>
      <point x="671" y="688" type="line"/>
      <point x="975" y="1658" type="line"/>
      <point x="696" y="1658" type="line"/>
      <point x="500" y="950" type="line"/>
      <point x="295" y="1658" type="line"/>
      <point x="13" y="1658" type="line"/>
      <point x="319" y="688" type="line"/>
      <point x="177" y="688" type="line"/>
      <point x="177" y="527" type="line"/>
      <point x="351" y="527" type="line"/>
      <point x="351" y="400" type="line"/>
      <point x="177" y="400" type="line"/>
      <point x="177" y="240" type="line"/>
      <point x="351" y="240" type="line"/>
    </contour>
  </outline>
</glyph>
<glyph name="degree" format="1">
  <advance width="1009"/>
  <unicode hex="00B0"/>
  <outline>
    <contour>
      <point x="569" y="1094" type="curve" smooth="yes"/>
      <point x="448" y="1094"/>
      <point x="392" y="1182"/>
      <point x="404" y="1303" type="curve" smooth="yes"/>
      <point x="417" y="1424"/>
      <point x="491" y="1509"/>
      <point x="612" y="1509" type="curve" smooth="yes"/>
      <point x="734" y="1509"/>
      <point x="790" y="1423"/>
      <point x="778" y="1302" type="curve" smooth="yes"/>
      <point x="765" y="1181"/>
      <point x="690" y="1094"/>
    </contour>
    <contour>
      <point x="551" y="927" type="curve" smooth="yes"/>
      <point x="785" y="927"/>
      <point x="945" y="1073"/>
      <point x="969" y="1303" type="curve" smooth="yes"/>
      <point x="993" y="1532"/>
      <point x="863" y="1677"/>
      <point x="630" y="1677" type="curve" smooth="yes"/>
      <point x="398" y="1677"/>
      <point x="238" y="1532"/>
      <point x="213" y="1303" type="curve" smooth="yes"/>
      <point x="189" y="1074"/>
      <point x="317" y="927"/>
    </contour>
  </outline>
</glyph>
<glyph name="threesuperior" format="1">
  <advance width="847"/>
  <unicode hex="00B3"/>
  <outline>
    <contour>
      <point x="447" y="654" type="curve" smooth="yes"/>
      <point x="662" y="654"/>
      <point x="763" y="798"/>
      <point x="783" y="996" type="curve" smooth="yes"/>
      <point x="802" y="1173"/>
      <point x="738" y="1231"/>
      <point x="675" y="1256" type="curve"/>
      <point x="747" y="1273"/>
      <point x="820" y="1367"/>
      <point x="835" y="1513" type="curve" smooth="yes"/>
      <point x="855" y="1701"/>
      <point x="761" y="1810"/>
      <point x="573" y="1810" type="curve" smooth="yes"/>
      <point x="383" y="1810"/>
      <point x="266" y="1700"/>
      <point x="246" y="1510" type="curve" smooth="yes"/>
      <point x="240" y="1454" type="line"/>
      <point x="441" y="1454" type="line"/>
      <point x="446" y="1507" type="line" smooth="yes"/>
      <point x="456" y="1596"/>
      <point x="485" y="1648"/>
      <point x="557" y="1648" type="curve" smooth="yes"/>
      <point x="624" y="1648"/>
      <point x="647" y="1599"/>
      <point x="636" y="1500" type="curve"/>
      <point x="622" y="1367"/>
      <point x="588" y="1309"/>
      <point x="491" y="1309" type="curve" smooth="yes"/>
      <point x="434" y="1309" type="line"/>
      <point x="420" y="1177" type="line"/>
      <point x="481" y="1177" type="line" smooth="yes"/>
      <point x="574" y="1177"/>
      <point x="598" y="1112"/>
      <point x="585" y="989" type="curve" smooth="yes"/>
      <point x="573" y="868"/>
      <point x="534" y="824"/>
      <point x="470" y="824" type="curve" smooth="yes"/>
      <point x="398" y="824"/>
      <point x="377" y="870"/>
      <point x="389" y="983" type="curve" smooth="yes"/>
      <point x="393" y="1020" type="line"/>
      <point x="192" y="1020" type="line"/>
      <point x="189" y="988" type="line"/>
      <point x="168" y="792"/>
      <point x="223" y="654"/>
    </contour>
  </outline>
</glyph>
<glyph name="mu" format="1">
  <advance width="951"/>
  <unicode hex="00B5"/>
  <outline>
    <contour>
      <point x="9" y="-369" type="line"/>
      <point x="284" y="-369" type="line"/>
      <point x="322" y="-7" type="line"/>
      <point x="330" y="-5"/>
      <point x="340" y="-2"/>
      <point x="349" y="1" type="curve" smooth="yes"/>
      <point x="416" y="21"/>
      <point x="477" y="59"/>
      <point x="533" y="106" type="curve"/>
      <point x="522" y="0" type="line"/>
      <point x="796" y="0" type="line"/>
      <point x="920" y="1184" type="line"/>
      <point x="646" y="1184" type="line"/>
      <point x="547" y="241" type="line"/>
      <point x="502" y="211"/>
      <point x="457" y="189"/>
      <point x="420" y="188" type="curve" smooth="yes"/>
      <point x="353" y="188"/>
      <point x="344" y="232"/>
      <point x="351" y="299" type="curve" smooth="yes"/>
      <point x="444" y="1184" type="line"/>
      <point x="170" y="1184" type="line"/>
    </contour>
  </outline>
</glyph>
<glyph name="onesuperior" format="1">
  <advance width="840"/>
  <unicode hex="00B9"/>
  <outline>
    <contour>
      <point x="390" y="673" type="line"/>
      <point x="592" y="673" type="line"/>
      <point x="710" y="1795" type="line"/>
      <point x="545" y="1795" type="line"/>
      <point x="488" y="1725"/>
      <point x="351" y="1676"/>
      <point x="303" y="1657" type="curve"/>
      <point x="287" y="1504" type="line"/>
      <point x="311" y="1509"/>
      <point x="465" y="1556"/>
      <point x="485" y="1580" type="curve"/>
    </contour>
  </outline>
</glyph>
<glyph name="ordmasculine" format="1">
  <advance width="950"/>
  <unicode hex="00BA"/>
  <outline>
    <contour>
      <point x="509" y="829" type="curve" smooth="yes"/>
      <point x="412" y="829"/>
      <point x="412" y="920"/>
      <point x="423" y="1028" type="curve" smooth="yes"/>
      <point x="452" y="1298" type="line" smooth="yes"/>
      <point x="463" y="1407"/>
      <point x="482" y="1497"/>
      <point x="579" y="1497" type="curve" smooth="yes"/>
      <point x="678" y="1497"/>
      <point x="674" y="1409"/>
      <point x="663" y="1298" type="curve" smooth="yes"/>
      <point x="635" y="1028" type="line" smooth="yes"/>
      <point x="623" y="919"/>
      <point x="606" y="829"/>
    </contour>
    <contour>
      <point x="492" y="643" type="curve" smooth="yes"/>
      <point x="715" y="643"/>
      <point x="843" y="786"/>
      <point x="867" y="1010" type="curve" smooth="yes"/>
      <point x="899" y="1317" type="line" smooth="yes"/>
      <point x="923" y="1541"/>
      <point x="824" y="1684"/>
      <point x="601" y="1684" type="curve" smooth="yes"/>
      <point x="370" y="1684"/>
      <point x="252" y="1549"/>
      <point x="228" y="1317" type="curve" smooth="yes"/>
      <point x="195" y="1010" type="line" smooth="yes"/>
      <point x="171" y="778"/>
      <point x="260" y="643"/>
    </contour>
  </outline>
</glyph>
<glyph name="AE" format="1">
  <advance width="1358"/>
  <unicode hex="00C6"/>
  <outline>
    <contour>
      <point x="-134" y="0" type="line"/>
      <point x="153" y="0" type="line"/>
      <point x="357" y="388" type="line"/>
      <point x="641" y="388" type="line"/>
      <point x="600" y="0" type="line"/>
      <point x="1257" y="0" type="line"/>
      <point x="1278" y="205" type="line"/>
      <point x="890" y="205" type="line"/>
      <point x="947" y="753" type="line"/>
      <point x="1224" y="753" type="line"/>
      <point x="1246" y="962" type="line"/>
      <point x="969" y="962" type="line"/>
      <point x="1020" y="1443" type="line"/>
      <point x="1409" y="1443" type="line"/>
      <point x="1430" y="1649" type="line"/>
      <point x="753" y="1649" type="line"/>
    </contour>
    <contour>
      <point x="448" y="586" type="line"/>
      <point x="722" y="1156" type="line"/>
      <point x="662" y="586" type="line"/>
    </contour>
  </outline>
</glyph>
<glyph name="Oslash" format="1">
  <advance width="1134"/>
  <unicode hex="00D8"/>
  <outline>
    <contour>
      <point x="200" y="-159" type="line"/>
      <point x="997" y="1777" type="line"/>
      <point x="916" y="1802" type="line"/>
      <point x="121" y="-130" type="line"/>
    </contour>
    <component base="O" xOffset="43"/>
  </outline>
</glyph>
<glyph name="germandbls" format="1">
  <advance width="1083"/>
  <unicode hex="00DF"/>
  <outline>
    <contour>
      <point x="439" y="-22" type="line"/>
      <point x="769" y="-22"/>
      <point x="954" y="133"/>
      <point x="990" y="469" type="curve"/>
      <point x="1011" y="672"/>
      <point x="918" y="822"/>
      <point x="744" y="872" type="curve"/>
      <point x="899" y="945"/>
      <point x="980" y="1059"/>
      <point x="1000" y="1240" type="curve" smooth="yes"/>
      <point x="1029" y="1517"/>
      <point x="910" y="1677"/>
      <point x="617" y="1677" type="curve" smooth="yes"/>
      <point x="350" y="1677"/>
      <point x="214" y="1481"/>
      <point x="190" y="1243" type="curve" smooth="yes"/>
      <point x="59" y="0" type="line"/>
      <point x="333" y="0" type="line"/>
      <point x="464" y="1246" type="line"/>
      <point x="476" y="1373"/>
      <point x="512" y="1468"/>
      <point x="625" y="1468" type="curve" smooth="yes"/>
      <point x="738" y="1468"/>
      <point x="762" y="1376"/>
      <point x="748" y="1238" type="curve" smooth="yes"/>
      <point x="731" y="1084"/>
      <point x="674" y="958"/>
      <point x="548" y="958" type="curve"/>
      <point x="526" y="738" type="line"/>
      <point x="664" y="738"/>
      <point x="731" y="637"/>
      <point x="718" y="484" type="curve" smooth="yes"/>
      <point x="701" y="281"/>
      <point x="637" y="196"/>
      <point x="463" y="196" type="curve"/>
    </contour>
  </outline>
</glyph>
<glyph name="ae" format="1">
  <advance width="1360"/>
  <unicode hex="00E6"/>
  <outline>
    <contour>
      <point x="289" y="-20" type="curve" smooth="yes"/>
      <point x="440" y="-29"/>
      <point x="559" y="69"/>
      <point x="631" y="200" type="curve"/>
      <point x="639" y="67"/>
      <point x="742" y="-20"/>
      <point x="876" y="-20" type="curve" smooth="yes"/>
      <point x="1108" y="-20"/>
      <point x="1234" y="117"/>
      <point x="1259" y="350" type="curve" smooth="yes"/>
      <point x="1266" y="414" type="line"/>
      <point x="1002" y="414" type="line"/>
      <point x="996" y="362" type="line" smooth="yes"/>
      <point x="986" y="272"/>
      <point x="970" y="188"/>
      <point x="889" y="188" type="curve" smooth="yes"/>
      <point x="781" y="188"/>
      <point x="810" y="359"/>
      <point x="822" y="481" type="curve" smooth="yes"/>
      <point x="832" y="581" type="line"/>
      <point x="842" y="582"/>
      <point x="949" y="601"/>
      <point x="959" y="603" type="curve" smooth="yes"/>
      <point x="1117" y="634"/>
      <point x="1293" y="679"/>
      <point x="1312" y="862" type="curve" smooth="yes"/>
      <point x="1332" y="1062"/>
      <point x="1237" y="1213"/>
      <point x="1007" y="1213" type="curve" smooth="yes"/>
      <point x="888" y="1213"/>
      <point x="793" y="1147"/>
      <point x="745" y="1067" type="curve"/>
      <point x="727" y="1156"/>
      <point x="641" y="1213"/>
      <point x="521" y="1213" type="curve" smooth="yes"/>
      <point x="284" y="1213"/>
      <point x="142" y="1059"/>
      <point x="116" y="817" type="curve"/>
      <point x="386" y="817" type="line"/>
      <point x="398" y="927"/>
      <point x="429" y="992"/>
      <point x="507" y="992" type="curve" smooth="yes"/>
      <point x="586" y="992"/>
      <point x="601" y="928"/>
      <point x="591" y="833" type="curve" smooth="yes"/>
      <point x="574" y="678" type="line"/>
      <point x="561" y="676"/>
      <point x="430" y="645"/>
      <point x="414" y="641" type="curve" smooth="yes"/>
      <point x="237" y="598"/>
      <point x="81" y="504"/>
      <point x="57" y="267" type="curve"/>
      <point x="40" y="108"/>
      <point x="142" y="-12"/>
    </contour>
    <contour>
      <point x="401" y="182" type="curve" smooth="yes"/>
      <point x="343" y="182"/>
      <point x="313" y="244"/>
      <point x="321" y="316" type="curve" smooth="yes"/>
      <point x="330" y="400"/>
      <point x="390" y="470"/>
      <point x="480" y="511" type="curve" smooth="yes"/>
      <point x="506" y="523"/>
      <point x="533" y="532"/>
      <point x="560" y="539" type="curve"/>
      <point x="546" y="399" type="line" smooth="yes"/>
      <point x="530" y="253"/>
      <point x="466" y="182"/>
    </contour>
    <contour>
      <point x="846" y="717" type="curve"/>
      <point x="860" y="842" type="line" smooth="yes"/>
      <point x="870" y="936"/>
      <point x="908" y="1010"/>
      <point x="985" y="1010" type="curve" smooth="yes"/>
      <point x="1057" y="1010"/>
      <point x="1080" y="951"/>
      <point x="1071" y="870" type="curve" smooth="yes"/>
      <point x="1062" y="782"/>
      <point x="1018" y="759"/>
      <point x="947" y="741" type="curve" smooth="yes"/>
      <point x="939" y="735"/>
      <point x="858" y="719"/>
    </contour>
  </outline>
</glyph>
<glyph name="eth" format="1">
  <advance width="1012"/>
  <unicode hex="00F0"/>
  <outline>
    <contour>
      <point x="439" y="-22" type="curve" smooth="yes"/>
      <point x="711" y="-22"/>
      <point x="868" y="142"/>
      <point x="902" y="467" type="curve" smooth="yes"/>
      <point x="941" y="834" type="line" smooth="yes"/>
      <point x="967" y="1085"/>
      <point x="919" y="1327"/>
      <point x="871" y="1440" type="curve"/>
      <point x="1055" y="1504" type="line"/>
      <point x="1052" y="1611" type="line"/>
      <point x="820" y="1528" type="line"/>
      <point x="744" y="1639"/>
      <point x="601" y="1694"/>
      <point x="343" y="1694" type="curve"/>
      <point x="312" y="1519" type="line"/>
      <point x="485" y="1519"/>
      <point x="563" y="1489"/>
      <point x="605" y="1439" type="curve"/>
      <point x="421" y="1373" type="line"/>
      <point x="424" y="1267" type="line"/>
      <point x="656" y="1352" type="line"/>
      <point x="684" y="1303"/>
      <point x="697" y="1207"/>
      <point x="692" y="1097" type="curve"/>
      <point x="658" y="1128"/>
      <point x="602" y="1159"/>
      <point x="516" y="1159" type="curve" smooth="yes"/>
      <point x="265" y="1159"/>
      <point x="155" y="941"/>
      <point x="126" y="664" type="curve" smooth="yes"/>
      <point x="103" y="450" type="line" smooth="yes"/>
      <point x="71" y="141"/>
      <point x="152" y="-22"/>
    </contour>
    <contour>
      <point x="465" y="179" type="curve" smooth="yes"/>
      <point x="314" y="179"/>
      <point x="367" y="365"/>
      <point x="390" y="592" type="curve" smooth="yes"/>
      <point x="417" y="850"/>
      <point x="454" y="957"/>
      <point x="563" y="957" type="curve" smooth="yes"/>
      <point x="632" y="957"/>
      <point x="661" y="916"/>
      <point x="674" y="903" type="curve"/>
      <point x="621" y="399" type="line" smooth="yes"/>
      <point x="608" y="274"/>
      <point x="582" y="179"/>
    </contour>
  </outline>
</glyph>
<glyph name="divide" format="1">
  <advance width="797"/>
  <unicode hex="00F7"/>
  <outline>
    <contour>
      <point x="291" y="348" type="line"/>
      <point x="485" y="348" type="line"/>
      <point x="511" y="592" type="line"/>
      <point x="317" y="592" type="line"/>
    </contour>
    <contour>
      <point x="78" y="759" type="line"/>
      <point x="779" y="759" type="line"/>
      <point x="797" y="933" type="line"/>
      <point x="96" y="933" type="line"/>
    </contour>
    <contour>
      <point x="368" y="1080" type="line"/>
      <point x="562" y="1080" type="line"/>
      <point x="588" y="1324" type="line"/>
      <point x="393" y="1324" type="line"/>
    </contour>
  </outline>
</glyph>
<glyph name="kgreenlandic" format="1">
  <advance width="945"/>
  <unicode hex="0138"/>
  <outline>
    <contour>
      <point x="62" y="0" type="line"/>
      <point x="336" y="0" type="line"/>
      <point x="382" y="429" type="line"/>
      <point x="484" y="562" type="line"/>
      <point x="611" y="0" type="line"/>
      <point x="892" y="0" type="line"/>
      <point x="708" y="705" type="line"/>
      <point x="1014" y="1184" type="line"/>
      <point x="730" y="1184" type="line"/>
      <point x="408" y="685" type="line"/>
      <point x="460" y="1184" type="line"/>
      <point x="186" y="1184" type="line"/>
    </contour>
  </outline>
</glyph>
<glyph name="lslash" format="1">
  <advance width="603"/>
  <unicode hex="0142"/>
  <outline>
    <contour>
      <point x="122" y="0" type="line"/>
      <point x="396" y="0" type="line"/>
      <point x="497" y="962" type="line"/>
      <point x="642" y="1024" type="line"/>
      <point x="661" y="1208" type="line"/>
      <point x="517" y="1147" type="line"/>
      <point x="570" y="1658" type="line"/>
      <point x="296" y="1658" type="line"/>
      <point x="230" y="1024" type="line"/>
      <point x="84" y="962" type="line"/>
      <point x="65" y="776" type="line"/>
      <point x="211" y="840" type="line"/>
    </contour>
  </outline>
</glyph>
<glyph name="eng" format="1">
  <advance width="863"/>
  <unicode hex="014B"/>
  <outline>
    <contour>
      <point x="240" y="-392" type="line"/>
      <point x="331" y="-392" type="line" smooth="yes"/>
      <point x="606" y="-392"/>
      <point x="764" y="-269"/>
      <point x="791" y="-12" type="curve" smooth="yes"/>
      <point x="892" y="948" type="line" smooth="yes"/>
      <point x="905" y="1072"/>
      <point x="873" y="1202"/>
      <point x="727" y="1202" type="curve" smooth="yes"/>
      <point x="614" y="1202"/>
      <point x="515" y="1150"/>
      <point x="424" y="1073" type="curve"/>
      <point x="435" y="1184" type="line"/>
      <point x="161" y="1184" type="line"/>
      <point x="37" y="0" type="line"/>
      <point x="311" y="0" type="line"/>
      <point x="410" y="940" type="line"/>
      <point x="456" y="972"/>
      <point x="504" y="995"/>
      <point x="543" y="996" type="curve" smooth="yes"/>
      <point x="610" y="996"/>
      <point x="618" y="952"/>
      <point x="611" y="885" type="curve" smooth="yes"/>
      <point x="517" y="-10" type="line" smooth="yes"/>
      <point x="503" y="-147"/>
      <point x="459" y="-201"/>
      <point x="260" y="-201" type="curve"/>
    </contour>
  </outline>
</glyph>
<glyph name="OE" format="1">
  <advance width="1443"/>
  <unicode hex="0152"/>
  <outline>
    <contour>
      <point x="600" y="0" type="curve" smooth="yes"/>
      <point x="1389" y="0" type="line"/>
      <point x="1389" y="209" type="line"/>
      <point x="1008" y="209" type="line"/>
      <point x="1008" y="750" type="line"/>
      <point x="1303" y="750" type="line"/>
      <point x="1303" y="962" type="line"/>
      <point x="1008" y="962" type="line"/>
      <point x="1008" y="1442" type="line"/>
      <point x="1385" y="1442" type="line"/>
      <point x="1385" y="1655" type="line"/>
      <point x="588" y="1655" type="line"/>
      <point x="224" y="1655"/>
      <point x="97" y="1441"/>
      <point x="97" y="1089" type="curve" smooth="yes"/>
      <point x="97" y="537" type="line" smooth="yes"/>
      <point x="97" y="188"/>
      <point x="224" y="0"/>
    </contour>
    <contour>
      <point x="604" y="215" type="line"/>
      <point x="414" y="214"/>
      <point x="400" y="325"/>
      <point x="400" y="523" type="curve" smooth="yes"/>
      <point x="400" y="1089" type="line" smooth="yes"/>
      <point x="400" y="1298"/>
      <point x="401" y="1441"/>
      <point x="600" y="1441" type="curve" smooth="yes"/>
      <point x="706" y="1441" type="line"/>
      <point x="706" y="215" type="line"/>
    </contour>
  </outline>
</glyph>
<glyph name="oe" format="1">
  <advance width="1432"/>
  <unicode hex="0153"/>
  <outline>
    <contour>
      <point x="456" y="-21" type="curve" smooth="yes"/>
      <point x="594" y="-21"/>
      <point x="677" y="37"/>
      <point x="720" y="119" type="curve"/>
      <point x="760" y="35"/>
      <point x="848" y="-18"/>
      <point x="979" y="-21" type="curve" smooth="yes"/>
      <point x="1216" y="-27"/>
      <point x="1334" y="93"/>
      <point x="1334" y="325" type="curve" smooth="yes"/>
      <point x="1334" y="436" type="line"/>
      <point x="1063" y="436" type="line"/>
      <point x="1063" y="324" type="line" smooth="yes"/>
      <point x="1063" y="223"/>
      <point x="1041" y="176"/>
      <point x="966" y="181" type="curve" smooth="yes"/>
      <point x="866" y="187"/>
      <point x="870" y="343"/>
      <point x="870" y="459" type="curve" smooth="yes"/>
      <point x="870" y="582" type="line"/>
      <point x="1333" y="582" type="line"/>
      <point x="1333" y="745" type="line" smooth="yes"/>
      <point x="1333" y="1033"/>
      <point x="1263" y="1214"/>
      <point x="982" y="1214" type="curve" smooth="yes"/>
      <point x="870" y="1214"/>
      <point x="763" y="1161"/>
      <point x="723" y="1073" type="curve"/>
      <point x="682" y="1161"/>
      <point x="581" y="1214"/>
      <point x="466" y="1214" type="curve" smooth="yes"/>
      <point x="218" y="1214"/>
      <point x="103" y="1067"/>
      <point x="103" y="814" type="curve" smooth="yes"/>
      <point x="103" y="388" type="line" smooth="yes"/>
      <point x="103" y="128"/>
      <point x="220" y="-21"/>
    </contour>
    <contour>
      <point x="480" y="181" type="curve" smooth="yes"/>
      <point x="389" y="181"/>
      <point x="381" y="277"/>
      <point x="381" y="385" type="curve" smooth="yes"/>
      <point x="381" y="821" type="line" smooth="yes"/>
      <point x="381" y="928"/>
      <point x="393" y="1015"/>
      <point x="482" y="1015" type="curve" smooth="yes"/>
      <point x="571" y="1015"/>
      <point x="583" y="927"/>
      <point x="583" y="821" type="curve" smooth="yes"/>
      <point x="583" y="385" type="line" smooth="yes"/>
      <point x="583" y="264"/>
      <point x="569" y="181"/>
    </contour>
    <contour>
      <point x="870" y="727" type="line"/>
      <point x="870" y="811" type="line" smooth="yes"/>
      <point x="870" y="911"/>
      <point x="886" y="1015"/>
      <point x="967" y="1015" type="curve" smooth="yes"/>
      <point x="1049" y="1015"/>
      <point x="1064" y="909"/>
      <point x="1064" y="811" type="curve" smooth="yes"/>
      <point x="1064" y="727" type="line"/>
    </contour>
  </outline>
</glyph>
<glyph name="uni0237" format="1">
  <advance width="508"/>
  <unicode hex="0237"/>
  <outline>
    <contour>
      <point x="-117" y="-325" type="line"/>
      <point x="-79" y="-339"/>
      <point x="-26" y="-345"/>
      <point x="23" y="-345" type="curve" smooth="yes"/>
      <point x="212" y="-345"/>
      <point x="333" y="-229"/>
      <point x="353" y="-44" type="curve" smooth="yes"/>
      <point x="482" y="1184" type="line"/>
      <point x="208" y="1184" type="line"/>
      <point x="82" y="-13" type="line" smooth="yes"/>
      <point x="74" y="-92"/>
      <point x="36" y="-136"/>
      <point x="-38" y="-136" type="curve" smooth="yes"/>
      <point x="-56" y="-136"/>
      <point x="-81" y="-132"/>
      <point x="-96" y="-129" type="curve"/>
    </contour>
  </outline>
</glyph>
<glyph name="breve" format="1">
  <advance width="692"/>
  <unicode hex="02D8"/>
  <outline>
    <contour>
      <point x="435" y="1365" type="curve" smooth="yes"/>
      <point x="642" y="1365"/>
      <point x="719" y="1489"/>
      <point x="736" y="1658" type="curve"/>
      <point x="595" y="1658" type="line"/>
      <point x="583" y="1546"/>
      <point x="547" y="1498"/>
      <point x="449" y="1498" type="curve" smooth="yes"/>
      <point x="351" y="1498"/>
      <point x="323" y="1545"/>
      <point x="335" y="1658" type="curve"/>
      <point x="194" y="1658" type="line"/>
      <point x="177" y="1489"/>
      <point x="229" y="1365"/>
    </contour>
  </outline>
</glyph>
<glyph name="ogonek" format="1">
  <advance width="513"/>
  <unicode hex="02DB"/>
  <outline>
    <contour>
      <point x="262" y="-490" type="curve"/>
      <point x="315" y="-354" type="line"/>
      <point x="243" y="-354"/>
      <point x="92" y="-377"/>
      <point x="103" y="-275" type="curve" smooth="yes"/>
      <point x="113" y="-175"/>
      <point x="220" y="-65"/>
      <point x="273" y="12" type="curve"/>
      <point x="141" y="12" type="line"/>
      <point x="35" y="-36"/>
      <point x="-86" y="-168"/>
      <point x="-99" y="-296" type="curve" smooth="yes"/>
      <point x="-119" y="-486"/>
      <point x="67" y="-492"/>
    </contour>
  </outline>
</glyph>
<glyph name="hungarumlaut" format="1">
  <advance width="710"/>
  <unicode hex="02DD"/>
  <outline>
    <contour>
      <point x="245" y="1269" type="line"/>
      <point x="383" y="1269" type="line"/>
      <point x="603" y="1658" type="line"/>
      <point x="382" y="1658" type="line"/>
    </contour>
    <contour>
      <point x="551" y="1269" type="line"/>
      <point x="692" y="1269" type="line"/>
      <point x="974" y="1658" type="line"/>
      <point x="716" y="1658" type="line"/>
    </contour>
  </outline>
</glyph>
<glyph name="acutecomb" format="1">
  <advance width="182"/>
  <unicode hex="0301"/>
  <outline>
    <contour>
      <point x="69" y="1249" type="line"/>
      <point x="223" y="1249" type="line"/>
      <point x="510" y="1658" type="line"/>
      <point x="233" y="1658" type="line"/>
    </contour>
  </outline>
</glyph>
<glyph name="uni0302" format="1">
  <advance width="756"/>
  <unicode hex="0302"/>
  <outline>
    <contour>
      <point x="157" y="1288" type="line"/>
      <point x="360" y="1288" type="line"/>
      <point x="492" y="1528" type="line"/>
      <point x="574" y="1288" type="line"/>
      <point x="778" y="1288" type="line"/>
      <point x="630" y="1658" type="line"/>
      <point x="379" y="1658" type="line"/>
    </contour>
  </outline>
</glyph>
<glyph name="uni0306" format="1">
  <advance width="690"/>
  <unicode hex="0306"/>
  <outline>
    <contour>
      <point x="339" y="1368" type="curve" smooth="yes"/>
      <point x="550" y="1368"/>
      <point x="633" y="1489"/>
      <point x="633" y="1658" type="curve"/>
      <point x="491" y="1658" type="line"/>
      <point x="491" y="1548"/>
      <point x="442" y="1502"/>
      <point x="339" y="1502" type="curve" smooth="yes"/>
      <point x="236" y="1502"/>
      <point x="187" y="1547"/>
      <point x="187" y="1658" type="curve"/>
      <point x="46" y="1658" type="line"/>
      <point x="46" y="1490"/>
      <point x="130" y="1368"/>
    </contour>
  </outline>
</glyph>
<glyph name="uni030F" format="1">
  <advance width="725"/>
  <unicode hex="030F"/>
  <outline>
    <contour>
      <point x="258" y="1290" type="line"/>
      <point x="404" y="1290" type="line"/>
      <point x="280" y="1675" type="line"/>
      <point x="34" y="1675" type="line"/>
    </contour>
    <contour>
      <point x="568" y="1290" type="line"/>
      <point x="713" y="1290" type="line"/>
      <point x="614" y="1675" type="line"/>
      <point x="400" y="1675" type="line"/>
    </contour>
  </outline>
</glyph>
<glyph name="uni0326" format="1">
  <advance width="347"/>
  <unicode hex="0326"/>
  <outline>
    <contour>
      <point x="-16" y="-590" type="line"/>
      <point x="146" y="-589"/>
      <point x="202" y="-482"/>
      <point x="221" y="-313" type="curve" smooth="yes"/>
      <point x="247" y="-71" type="line"/>
      <point x="-20" y="-71" type="line"/>
      <point x="-48" y="-337" type="line"/>
      <point x="91" y="-337" type="line"/>
      <point x="81" y="-434"/>
      <point x="31" y="-468"/>
      <point x="-51" y="-473" type="curve"/>
    </contour>
  </outline>
</glyph>
<glyph name="Pi" format="1">
  <advance width="1188"/>
  <unicode hex="03A0"/>
  <outline>
    <contour>
      <point x="117" y="0" type="line"/>
      <point x="393" y="0" type="line"/>
      <point x="393" y="1442" type="line"/>
      <point x="795" y="1442" type="line"/>
      <point x="795" y="0" type="line"/>
      <point x="1071" y="0" type="line"/>
      <point x="1071" y="1658" type="line"/>
      <point x="117" y="1658" type="line"/>
    </contour>
  </outline>
</glyph>
<glyph name="afii10053" format="1">
  <advance width="1075"/>
  <unicode hex="0404"/>
  <outline>
    <contour>
      <point x="514" y="-20" type="curve" smooth="yes"/>
      <point x="861" y="-20"/>
      <point x="982" y="189"/>
      <point x="1013" y="487" type="curve" smooth="yes"/>
      <point x="1020" y="561" type="line"/>
      <point x="736" y="561" type="line"/>
      <point x="728" y="478" type="line" smooth="yes"/>
      <point x="711" y="321"/>
      <point x="695" y="200"/>
      <point x="539" y="200" type="curve" smooth="yes"/>
      <point x="408" y="200"/>
      <point x="375" y="279"/>
      <point x="397" y="478" type="curve" smooth="yes"/>
      <point x="426" y="758" type="line"/>
      <point x="779" y="758" type="line"/>
      <point x="798" y="941" type="line"/>
      <point x="445" y="941" type="line"/>
      <point x="469" y="1172" type="line" smooth="yes"/>
      <point x="487" y="1336"/>
      <point x="511" y="1458"/>
      <point x="671" y="1458" type="curve" smooth="yes"/>
      <point x="834" y="1458"/>
      <point x="818" y="1339"/>
      <point x="803" y="1195" type="curve" smooth="yes"/>
      <point x="795" y="1123" type="line"/>
      <point x="1080" y="1123" type="line"/>
      <point x="1088" y="1198" type="line" smooth="yes"/>
      <point x="1118" y="1492"/>
      <point x="1028" y="1677"/>
      <point x="693" y="1677" type="curve" smooth="yes"/>
      <point x="328" y="1677"/>
      <point x="201" y="1459"/>
      <point x="165" y="1115" type="curve" smooth="yes"/>
      <point x="104" y="538" type="line" smooth="yes"/>
      <point x="70" y="214"/>
      <point x="149" y="-20"/>
    </contour>
  </outline>
</glyph>
<glyph name="afii10060" format="1">
  <advance width="1108"/>
  <unicode hex="040B"/>
  <outline>
    <contour>
      <point x="184" y="0" type="line"/>
      <point x="475" y="0" type="line"/>
      <point x="555" y="759" type="line"/>
      <point x="565" y="765"/>
      <point x="625" y="802"/>
      <point x="684" y="803" type="curve" smooth="yes"/>
      <point x="752" y="803"/>
      <point x="760" y="768"/>
      <point x="755" y="713" type="curve" smooth="yes"/>
      <point x="680" y="0" type="line"/>
      <point x="954" y="0" type="line"/>
      <point x="1034" y="765" type="line" smooth="yes"/>
      <point x="1047" y="885"/>
      <point x="959" y="969"/>
      <point x="807" y="969" type="curve" smooth="yes"/>
      <point x="673" y="969"/>
      <point x="571" y="911"/>
      <point x="571" y="911" type="curve"/>
      <point x="626" y="1440" type="line"/>
      <point x="874" y="1440" type="line"/>
      <point x="896" y="1658" type="line"/>
      <point x="133" y="1658" type="line"/>
      <point x="110" y="1440" type="line"/>
      <point x="335" y="1440" type="line"/>
    </contour>
  </outline>
</glyph>
<glyph name="afii10145" format="1">
  <advance width="1173"/>
  <unicode hex="040F"/>
  <outline>
    <contour>
      <point x="479" y="-329" type="line"/>
      <point x="701" y="-329" type="line"/>
      <point x="716" y="0" type="line"/>
      <point x="1049" y="0" type="line"/>
      <point x="1049" y="1658" type="line"/>
      <point x="747" y="1658" type="line"/>
      <point x="747" y="222" type="line"/>
      <point x="426" y="222" type="line"/>
      <point x="426" y="1658" type="line"/>
      <point x="124" y="1658" type="line"/>
      <point x="124" y="0" type="line"/>
      <point x="465" y="0" type="line"/>
    </contour>
  </outline>
</glyph>
<glyph name="afii10018" format="1">
  <advance width="1070"/>
  <unicode hex="0411"/>
  <outline>
    <contour>
      <point x="127" y="0" type="line"/>
      <point x="472" y="0" type="line" smooth="yes"/>
      <point x="804" y="0"/>
      <point x="1002" y="110"/>
      <point x="1002" y="485" type="curve" smooth="yes"/>
      <point x="1002" y="850"/>
      <point x="823" y="964"/>
      <point x="478" y="964" type="curve" smooth="yes"/>
      <point x="429" y="964" type="line"/>
      <point x="429" y="1434" type="line"/>
      <point x="894" y="1434" type="line"/>
      <point x="894" y="1658" type="line"/>
      <point x="127" y="1658" type="line"/>
    </contour>
    <contour>
      <point x="429" y="206" type="line"/>
      <point x="429" y="753" type="line"/>
      <point x="468" y="753" type="line" smooth="yes"/>
      <point x="663" y="753"/>
      <point x="719" y="668"/>
      <point x="720" y="489" type="curve" smooth="yes"/>
      <point x="722" y="259"/>
      <point x="645" y="206"/>
      <point x="472" y="206" type="curve" smooth="yes"/>
    </contour>
  </outline>
</glyph>
<glyph name="afii10019" format="1">
  <advance width="1138"/>
  <unicode hex="0412"/>
  <outline>
    <contour>
      <point x="127" y="0" type="line"/>
      <point x="603" y="0" type="line" smooth="yes"/>
      <point x="907" y="0"/>
      <point x="1070" y="166"/>
      <point x="1068" y="481" type="curve" smooth="yes"/>
      <point x="1067" y="724"/>
      <point x="970" y="855"/>
      <point x="776" y="892" type="curve"/>
      <point x="932" y="915"/>
      <point x="1018" y="1025"/>
      <point x="1019" y="1235" type="curve" smooth="yes"/>
      <point x="1023" y="1561"/>
      <point x="826" y="1658"/>
      <point x="533" y="1658" type="curve" smooth="yes"/>
      <point x="127" y="1658" type="line"/>
    </contour>
    <contour>
      <point x="429" y="213" type="line"/>
      <point x="429" y="769" type="line"/>
      <point x="524" y="769" type="line" smooth="yes"/>
      <point x="710" y="769"/>
      <point x="779" y="681"/>
      <point x="779" y="484" type="curve" smooth="yes"/>
      <point x="779" y="298"/>
      <point x="727" y="213"/>
      <point x="540" y="213" type="curve" smooth="yes"/>
    </contour>
    <contour>
      <point x="429" y="982" type="line"/>
      <point x="429" y="1446" type="line"/>
      <point x="472" y="1446" type="line" smooth="yes"/>
      <point x="663" y="1446"/>
      <point x="757" y="1421"/>
      <point x="757" y="1231" type="curve" smooth="yes"/>
      <point x="757" y="1057"/>
      <point x="706" y="982"/>
      <point x="523" y="982" type="curve" smooth="yes"/>
    </contour>
  </outline>
</glyph>
<glyph name="afii10021" format="1">
  <advance width="1349"/>
  <unicode hex="0414"/>
  <outline>
    <contour>
      <point x="-57" y="-326" type="line"/>
      <point x="160" y="-326" type="line"/>
      <point x="214" y="0" type="line"/>
      <point x="1027" y="0" type="line"/>
      <point x="1012" y="-326" type="line"/>
      <point x="1225" y="-326" type="line"/>
      <point x="1282" y="210" type="line"/>
      <point x="1107" y="210" type="line"/>
      <point x="1259" y="1658" type="line"/>
      <point x="522" y="1658" type="line"/>
      <point x="438" y="1142" type="line" smooth="yes"/>
      <point x="332" y="471"/>
      <point x="205" y="292"/>
      <point x="67" y="210" type="curve"/>
      <point x="0" y="210" type="line"/>
    </contour>
    <contour>
      <point x="341" y="210" type="line"/>
      <point x="467" y="320"/>
      <point x="588" y="423"/>
      <point x="686" y="1091" type="curve"/>
      <point x="738" y="1445" type="line"/>
      <point x="951" y="1445" type="line"/>
      <point x="822" y="210" type="line"/>
    </contour>
  </outline>
</glyph>
<glyph name="afii10025" format="1">
  <advance width="1028"/>
  <unicode hex="0417"/>
  <outline>
    <contour>
      <point x="515" y="-23" type="curve" smooth="yes"/>
      <point x="827" y="-23"/>
      <point x="947" y="178"/>
      <point x="947" y="478" type="curve" smooth="yes"/>
      <point x="947" y="702"/>
      <point x="863" y="826"/>
      <point x="725" y="874" type="curve"/>
      <point x="855" y="912"/>
      <point x="947" y="1045"/>
      <point x="947" y="1237" type="curve" smooth="yes"/>
      <point x="947" y="1519"/>
      <point x="778" y="1678"/>
      <point x="498" y="1678" type="curve" smooth="yes"/>
      <point x="222" y="1678"/>
      <point x="51" y="1515"/>
      <point x="51" y="1233" type="curve" smooth="yes"/>
      <point x="51" y="1156" type="line"/>
      <point x="336" y="1156" type="line"/>
      <point x="336" y="1169"/>
      <point x="336" y="1215"/>
      <point x="337" y="1227" type="curve" smooth="yes"/>
      <point x="343" y="1354"/>
      <point x="384" y="1449"/>
      <point x="503" y="1449" type="curve" smooth="yes"/>
      <point x="622" y="1449"/>
      <point x="665" y="1365"/>
      <point x="665" y="1228" type="curve" smooth="yes"/>
      <point x="665" y="1064"/>
      <point x="613" y="973"/>
      <point x="423" y="964" type="curve" smooth="yes"/>
      <point x="412" y="963"/>
      <point x="370" y="963"/>
      <point x="358" y="963" type="curve"/>
      <point x="358" y="756" type="line"/>
      <point x="372" y="756"/>
      <point x="417" y="756"/>
      <point x="429" y="755" type="curve" smooth="yes"/>
      <point x="617" y="743"/>
      <point x="665" y="638"/>
      <point x="665" y="474" type="curve" smooth="yes"/>
      <point x="665" y="318"/>
      <point x="648" y="214"/>
      <point x="517" y="214" type="curve" smooth="yes"/>
      <point x="399" y="214"/>
      <point x="370" y="298"/>
      <point x="366" y="443" type="curve" smooth="yes"/>
      <point x="365" y="457"/>
      <point x="365" y="492"/>
      <point x="365" y="506" type="curve"/>
      <point x="81" y="506" type="line"/>
      <point x="81" y="447" type="line" smooth="yes"/>
      <point x="81" y="159"/>
      <point x="210" y="-23"/>
    </contour>
  </outline>
</glyph>
<glyph name="afii10026" format="1">
  <advance width="1156"/>
  <unicode hex="0418"/>
  <outline>
    <contour>
      <point x="77" y="0" type="line"/>
      <point x="276" y="0" type="line"/>
      <point x="842" y="1066" type="line"/>
      <point x="730" y="0" type="line"/>
      <point x="979" y="0" type="line"/>
      <point x="1153" y="1658" type="line"/>
      <point x="951" y="1658" type="line"/>
      <point x="389" y="613" type="line"/>
      <point x="498" y="1658" type="line"/>
      <point x="251" y="1658" type="line"/>
    </contour>
  </outline>
</glyph>
<glyph name="afii10030" format="1">
  <advance width="1392"/>
  <unicode hex="041C"/>
  <outline>
    <contour>
      <point x="71" y="0" type="line"/>
      <point x="294" y="0" type="line"/>
      <point x="421" y="1079" type="line"/>
      <point x="570" y="0" type="line"/>
      <point x="726" y="0" type="line"/>
      <point x="1098" y="1076" type="line"/>
      <point x="1000" y="0" type="line"/>
      <point x="1221" y="0" type="line"/>
      <point x="1367" y="1658" type="line"/>
      <point x="1086" y="1658" type="line"/>
      <point x="701" y="527" type="line"/>
      <point x="560" y="1658" type="line"/>
      <point x="273" y="1658" type="line"/>
    </contour>
  </outline>
</glyph>
<glyph name="afii10031" format="1">
  <advance width="1182"/>
  <unicode hex="041D"/>
  <outline>
    <contour>
      <point x="124" y="0" type="line"/>
      <point x="426" y="0" type="line"/>
      <point x="426" y="750" type="line"/>
      <point x="757" y="750" type="line"/>
      <point x="757" y="0" type="line"/>
      <point x="1058" y="0" type="line"/>
      <point x="1058" y="1658" type="line"/>
      <point x="757" y="1658" type="line"/>
      <point x="757" y="965" type="line"/>
      <point x="426" y="965" type="line"/>
      <point x="426" y="1658" type="line"/>
      <point x="124" y="1658" type="line"/>
    </contour>
  </outline>
</glyph>
<glyph name="afii10036" format="1">
  <advance width="870"/>
  <unicode hex="0422"/>
  <outline>
    <contour>
      <point x="288" y="0" type="line"/>
      <point x="590" y="0" type="line"/>
      <point x="590" y="1435" type="line"/>
      <point x="857" y="1435" type="line"/>
      <point x="857" y="1658" type="line"/>
      <point x="13" y="1658" type="line"/>
      <point x="13" y="1435" type="line"/>
      <point x="288" y="1435" type="line"/>
    </contour>
  </outline>
</glyph>
<glyph name="afii10037" format="1">
  <advance width="1003"/>
  <unicode hex="0423"/>
  <outline>
    <contour>
      <point x="27" y="-287" type="line"/>
      <point x="490" y="-308"/>
      <point x="527" y="-200"/>
      <point x="637" y="152" type="curve" smooth="yes"/>
      <point x="1107" y="1658" type="line"/>
      <point x="826" y="1658" type="line"/>
      <point x="635" y="966" type="line"/>
      <point x="523" y="475" type="line"/>
      <point x="502" y="968" type="line"/>
      <point x="438" y="1658" type="line"/>
      <point x="163" y="1658" type="line"/>
      <point x="346" y="174" type="line" smooth="yes"/>
      <point x="370" y="-22"/>
      <point x="313" y="-98"/>
      <point x="49" y="-75" type="curve"/>
    </contour>
  </outline>
</glyph>
<glyph name="afii10038" format="1">
  <advance width="1446"/>
  <unicode hex="0424"/>
  <outline>
    <contour>
      <point x="529" y="-64" type="line"/>
      <point x="798" y="-64" type="line"/>
      <point x="825" y="199" type="line"/>
      <point x="825" y="199"/>
      <point x="890" y="197"/>
      <point x="890" y="197" type="curve"/>
      <point x="1155" y="173"/>
      <point x="1334" y="317"/>
      <point x="1366" y="624" type="curve" smooth="yes"/>
      <point x="1412" y="1062" type="line" smooth="yes"/>
      <point x="1444" y="1370"/>
      <point x="1295" y="1507"/>
      <point x="1021" y="1489" type="curve"/>
      <point x="961" y="1488" type="line"/>
      <point x="992" y="1788" type="line"/>
      <point x="724" y="1788" type="line"/>
      <point x="692" y="1487" type="line"/>
      <point x="634" y="1489" type="line"/>
      <point x="368" y="1507"/>
      <point x="190" y="1369"/>
      <point x="157" y="1062" type="curve" smooth="yes"/>
      <point x="111" y="624" type="line" smooth="yes"/>
      <point x="79" y="316"/>
      <point x="227" y="173"/>
      <point x="502" y="197" type="curve"/>
      <point x="557" y="199" type="line"/>
    </contour>
    <contour>
      <point x="547" y="376" type="curve" smooth="yes"/>
      <point x="375" y="368"/>
      <point x="356" y="438"/>
      <point x="375" y="622" type="curve" smooth="yes"/>
      <point x="422" y="1064" type="line" smooth="yes"/>
      <point x="441" y="1249"/>
      <point x="475" y="1321"/>
      <point x="645" y="1313" type="curve" smooth="yes"/>
      <point x="648" y="1314"/>
      <point x="670" y="1313"/>
      <point x="674" y="1312" type="curve"/>
      <point x="576" y="378" type="line"/>
      <point x="572" y="377"/>
      <point x="550" y="376"/>
    </contour>
    <contour>
      <point x="878" y="377" type="curve" smooth="yes"/>
      <point x="875" y="377"/>
      <point x="847" y="378"/>
      <point x="844" y="378" type="curve"/>
      <point x="942" y="1313" type="line"/>
      <point x="976" y="1313" type="line" smooth="yes"/>
      <point x="1149" y="1320"/>
      <point x="1167" y="1248"/>
      <point x="1148" y="1064" type="curve" smooth="yes"/>
      <point x="1102" y="622" type="line" smooth="yes"/>
      <point x="1082" y="436"/>
      <point x="1048" y="368"/>
    </contour>
  </outline>
</glyph>
<glyph name="afii10040" format="1">
  <advance width="1337"/>
  <unicode hex="0426"/>
  <outline>
    <contour>
      <point x="985" y="-326" type="line"/>
      <point x="1207" y="-326" type="line"/>
      <point x="1263" y="205" type="line"/>
      <point x="1075" y="205" type="line"/>
      <point x="1227" y="1658" type="line"/>
      <point x="932" y="1658" type="line"/>
      <point x="779" y="205" type="line"/>
      <point x="394" y="205" type="line"/>
      <point x="546" y="1658" type="line"/>
      <point x="251" y="1658" type="line"/>
      <point x="77" y="0" type="line"/>
      <point x="988" y="0" type="line"/>
    </contour>
  </outline>
</glyph>
<glyph name="afii10043" format="1">
  <advance width="1733"/>
  <unicode hex="0429"/>
  <outline>
    <contour>
      <point x="1361" y="-326" type="line"/>
      <point x="1584" y="-326" type="line"/>
      <point x="1640" y="205" type="line"/>
      <point x="1451" y="205" type="line"/>
      <point x="1603" y="1658" type="line"/>
      <point x="1316" y="1658" type="line"/>
      <point x="1164" y="205" type="line"/>
      <point x="924" y="205" type="line"/>
      <point x="1076" y="1658" type="line"/>
      <point x="789" y="1658" type="line"/>
      <point x="637" y="205" type="line"/>
      <point x="386" y="205" type="line"/>
      <point x="539" y="1658" type="line"/>
      <point x="251" y="1658" type="line"/>
      <point x="77" y="0" type="line"/>
      <point x="1367" y="0" type="line"/>
    </contour>
  </outline>
</glyph>
<glyph name="afii10044" format="1">
  <advance width="1224"/>
  <unicode hex="042A"/>
  <outline>
    <contour>
      <point x="273" y="0" type="line"/>
      <point x="633" y="0" type="line" smooth="yes"/>
      <point x="965" y="0"/>
      <point x="1163" y="110"/>
      <point x="1163" y="485" type="curve" smooth="yes"/>
      <point x="1163" y="850"/>
      <point x="984" y="964"/>
      <point x="639" y="964" type="curve" smooth="yes"/>
      <point x="575" y="964" type="line"/>
      <point x="575" y="1658" type="line"/>
      <point x="-5" y="1658" type="line"/>
      <point x="-5" y="1441" type="line"/>
      <point x="273" y="1441" type="line"/>
    </contour>
    <contour>
      <point x="575" y="206" type="line"/>
      <point x="575" y="753" type="line"/>
      <point x="629" y="753" type="line" smooth="yes"/>
      <point x="824" y="753"/>
      <point x="880" y="668"/>
      <point x="881" y="489" type="curve" smooth="yes"/>
      <point x="883" y="259"/>
      <point x="806" y="206"/>
      <point x="633" y="206" type="curve" smooth="yes"/>
    </contour>
  </outline>
</glyph>
<glyph name="afii10045" format="1">
  <advance width="1593"/>
  <unicode hex="042B"/>
  <outline>
    <contour>
      <point x="127" y="0" type="line"/>
      <point x="481" y="0" type="line" smooth="yes"/>
      <point x="814" y="0"/>
      <point x="1011" y="110"/>
      <point x="1011" y="485" type="curve" smooth="yes"/>
      <point x="1011" y="850"/>
      <point x="833" y="964"/>
      <point x="488" y="964" type="curve" smooth="yes"/>
      <point x="429" y="964" type="line"/>
      <point x="429" y="1658" type="line"/>
      <point x="127" y="1658" type="line"/>
    </contour>
    <contour>
      <point x="429" y="206" type="line"/>
      <point x="429" y="753" type="line"/>
      <point x="478" y="753" type="line" smooth="yes"/>
      <point x="673" y="753"/>
      <point x="729" y="668"/>
      <point x="730" y="489" type="curve" smooth="yes"/>
      <point x="732" y="259"/>
      <point x="655" y="206"/>
      <point x="482" y="206" type="curve" smooth="yes"/>
    </contour>
    <contour>
      <point x="1164" y="0" type="line"/>
      <point x="1466" y="0" type="line"/>
      <point x="1466" y="1658" type="line"/>
      <point x="1164" y="1658" type="line"/>
    </contour>
  </outline>
</glyph>
<glyph name="afii10046" format="1">
  <advance width="1067"/>
  <unicode hex="042C"/>
  <outline>
    <contour>
      <point x="77" y="0" type="line"/>
      <point x="425" y="0" type="line" smooth="yes"/>
      <point x="761" y="0"/>
      <point x="967" y="113"/>
      <point x="1006" y="485" type="curve" smooth="yes"/>
      <point x="1045" y="853"/>
      <point x="878" y="965"/>
      <point x="530" y="965" type="curve" smooth="yes"/>
      <point x="474" y="965" type="line"/>
      <point x="546" y="1658" type="line"/>
      <point x="251" y="1658" type="line"/>
    </contour>
    <contour>
      <point x="394" y="203" type="line"/>
      <point x="452" y="757" type="line"/>
      <point x="500" y="757" type="line" smooth="yes"/>
      <point x="700" y="757"/>
      <point x="749" y="673"/>
      <point x="731" y="489" type="curve" smooth="yes"/>
      <point x="708" y="254"/>
      <point x="623" y="203"/>
      <point x="447" y="203" type="curve" smooth="yes"/>
    </contour>
  </outline>
</glyph>
<glyph name="afii10047" format="1">
  <advance width="1117"/>
  <unicode hex="042D"/>
  <outline>
    <contour>
      <point x="548" y="-3" type="curve" smooth="yes"/>
      <point x="914" y="-3"/>
      <point x="1019" y="214"/>
      <point x="1019" y="559" type="curve" smooth="yes"/>
      <point x="1019" y="1137" type="line" smooth="yes"/>
      <point x="1019" y="1462"/>
      <point x="914" y="1694"/>
      <point x="548" y="1694" type="curve" smooth="yes"/>
      <point x="198" y="1694"/>
      <point x="99" y="1485"/>
      <point x="99" y="1188" type="curve" smooth="yes"/>
      <point x="99" y="1112" type="line"/>
      <point x="390" y="1112" type="line"/>
      <point x="390" y="1200" type="line" smooth="yes"/>
      <point x="390" y="1351"/>
      <point x="394" y="1470"/>
      <point x="546" y="1470" type="curve" smooth="yes"/>
      <point x="675" y="1470"/>
      <point x="714" y="1391"/>
      <point x="714" y="1200" type="curve" smooth="yes"/>
      <point x="714" y="938" type="line"/>
      <point x="440" y="938" type="line"/>
      <point x="440" y="765" type="line"/>
      <point x="714" y="765" type="line"/>
      <point x="714" y="498" type="line" smooth="yes"/>
      <point x="714" y="340"/>
      <point x="703" y="220"/>
      <point x="546" y="220" type="curve" smooth="yes"/>
      <point x="388" y="220"/>
      <point x="390" y="336"/>
      <point x="390" y="477" type="curve" smooth="yes"/>
      <point x="390" y="561" type="line"/>
      <point x="99" y="561" type="line"/>
      <point x="99" y="476" type="line" smooth="yes"/>
      <point x="99" y="182"/>
      <point x="210" y="-3"/>
    </contour>
  </outline>
</glyph>
<glyph name="afii10069" format="1">
  <advance width="1111"/>
  <unicode hex="0434"/>
  <outline>
    <contour>
      <point x="-58" y="-312" type="line"/>
      <point x="141" y="-312" type="line"/>
      <point x="194" y="0" type="line"/>
      <point x="808" y="0" type="line"/>
      <point x="796" y="-312" type="line"/>
      <point x="993" y="-312" type="line"/>
      <point x="1045" y="183" type="line"/>
      <point x="887" y="183" type="line"/>
      <point x="992" y="1184" type="line"/>
      <point x="405" y="1184" type="line"/>
      <point x="369" y="963" type="line" smooth="yes"/>
      <point x="312" y="487"/>
      <point x="175" y="288"/>
      <point x="-7" y="175" type="curve"/>
    </contour>
    <contour>
      <point x="274" y="183" type="line"/>
      <point x="399" y="268"/>
      <point x="519" y="420"/>
      <point x="575" y="903" type="curve" smooth="yes"/>
      <point x="594" y="1002" type="line"/>
      <point x="716" y="1002" type="line"/>
      <point x="630" y="183" type="line"/>
    </contour>
  </outline>
</glyph>
<glyph name="afii10076" format="1">
  <advance width="944"/>
  <unicode hex="043A"/>
  <outline>
    <contour>
      <point x="107" y="0" type="line"/>
      <point x="387" y="0" type="line"/>
      <point x="387" y="538" type="line"/>
      <point x="440" y="538" type="line"/>
      <point x="640" y="0" type="line"/>
      <point x="935" y="0" type="line"/>
      <point x="694" y="617" type="line"/>
      <point x="931" y="1184" type="line"/>
      <point x="636" y="1184" type="line"/>
      <point x="440" y="703" type="line"/>
      <point x="387" y="703" type="line"/>
      <point x="387" y="1184" type="line"/>
      <point x="107" y="1184" type="line"/>
    </contour>
  </outline>
</glyph>
<glyph name="afii10077" format="1">
  <advance width="1065"/>
  <unicode hex="043B"/>
  <outline>
    <contour>
      <point x="-17" y="-7" type="line"/>
      <point x="4" y="-10"/>
      <point x="39" y="-11"/>
      <point x="55" y="-11" type="curve" smooth="yes"/>
      <point x="337" y="-11"/>
      <point x="423" y="111"/>
      <point x="505" y="621" type="curve" smooth="yes"/>
      <point x="565" y="986" type="line"/>
      <point x="738" y="986" type="line"/>
      <point x="634" y="0" type="line"/>
      <point x="908" y="0" type="line"/>
      <point x="1032" y="1184" type="line"/>
      <point x="349" y="1184" type="line"/>
      <point x="258" y="634" type="line" smooth="yes"/>
      <point x="202" y="293"/>
      <point x="178" y="181"/>
      <point x="4" y="190" type="curve"/>
    </contour>
  </outline>
</glyph>
<glyph name="afii10079" format="1">
  <advance width="998"/>
  <unicode hex="043D"/>
  <outline>
    <contour>
      <point x="58" y="0" type="line"/>
      <point x="332" y="0" type="line"/>
      <point x="386" y="510" type="line"/>
      <point x="620" y="510" type="line"/>
      <point x="566" y="0" type="line"/>
      <point x="840" y="0" type="line"/>
      <point x="964" y="1184" type="line"/>
      <point x="690" y="1184" type="line"/>
      <point x="641" y="705" type="line"/>
      <point x="406" y="705" type="line"/>
      <point x="456" y="1184" type="line"/>
      <point x="182" y="1184" type="line"/>
    </contour>
  </outline>
</glyph>
<glyph name="afii10085" format="1">
  <advance width="874"/>
  <unicode hex="0443"/>
  <outline>
    <contour>
      <point x="27" y="-331" type="line"/>
      <point x="309" y="-331"/>
      <point x="428" y="-282"/>
      <point x="519" y="-5" type="curve" smooth="yes"/>
      <point x="916" y="1184" type="line"/>
      <point x="661" y="1184" type="line"/>
      <point x="514" y="638" type="line"/>
      <point x="421" y="274" type="line"/>
      <point x="395" y="639" type="line"/>
      <point x="346" y="1184" type="line"/>
      <point x="100" y="1184" type="line"/>
      <point x="246" y="86" type="line"/>
      <point x="268" y="-92"/>
      <point x="227" y="-118"/>
      <point x="39" y="-119" type="curve"/>
    </contour>
  </outline>
</glyph>
<glyph name="afii10086" format="1">
  <advance width="1336"/>
  <unicode hex="0444"/>
  <outline>
    <contour>
      <point x="541" y="-374" type="line"/>
      <point x="792" y="-374" type="line"/>
      <point x="792" y="42" type="line"/>
      <point x="822" y="42" type="line" smooth="yes"/>
      <point x="997" y="42"/>
      <point x="1249" y="122"/>
      <point x="1249" y="485" type="curve" smooth="yes"/>
      <point x="1249" y="750" type="line" smooth="yes"/>
      <point x="1249" y="1044"/>
      <point x="1042" y="1172"/>
      <point x="824" y="1172" type="curve" smooth="yes"/>
      <point x="792" y="1172" type="line"/>
      <point x="792" y="1658" type="line"/>
      <point x="541" y="1658" type="line"/>
      <point x="541" y="1172" type="line"/>
      <point x="516" y="1172" type="line" smooth="yes"/>
      <point x="299" y="1172"/>
      <point x="87" y="1044"/>
      <point x="87" y="750" type="curve" smooth="yes"/>
      <point x="87" y="485" type="line" smooth="yes"/>
      <point x="87" y="122"/>
      <point x="342" y="42"/>
      <point x="519" y="42" type="curve" smooth="yes"/>
      <point x="541" y="42" type="line"/>
    </contour>
    <contour>
      <point x="526" y="224" type="line"/>
      <point x="408" y="224"/>
      <point x="343" y="292"/>
      <point x="343" y="476" type="curve" smooth="yes"/>
      <point x="343" y="782" type="line" smooth="yes"/>
      <point x="343" y="946"/>
      <point x="417" y="1003"/>
      <point x="524" y="1003" type="curve" smooth="yes"/>
      <point x="541" y="1003" type="line"/>
      <point x="541" y="224" type="line"/>
    </contour>
    <contour>
      <point x="805" y="224" type="curve" smooth="yes"/>
      <point x="792" y="224" type="line"/>
      <point x="792" y="1003" type="line"/>
      <point x="807" y="1003" type="line" smooth="yes"/>
      <point x="914" y="1003"/>
      <point x="993" y="946"/>
      <point x="993" y="782" type="curve" smooth="yes"/>
      <point x="993" y="476" type="line" smooth="yes"/>
      <point x="993" y="292"/>
      <point x="920" y="224"/>
    </contour>
  </outline>
</glyph>
<glyph name="afii10087" format="1">
  <advance width="846"/>
  <unicode hex="0445"/>
  <outline>
    <contour>
      <point x="15" y="0" type="line"/>
      <point x="262" y="0" type="line"/>
      <point x="397" y="359" type="line"/>
      <point x="560" y="0" type="line"/>
      <point x="835" y="0" type="line"/>
      <point x="564" y="596" type="line"/>
      <point x="818" y="1184" type="line"/>
      <point x="574" y="1184" type="line"/>
      <point x="445" y="857" type="line"/>
      <point x="296" y="1184" type="line"/>
      <point x="22" y="1184" type="line"/>
      <point x="272" y="634" type="line"/>
    </contour>
  </outline>
</glyph>
<glyph name="afii10088" format="1">
  <advance width="1074"/>
  <unicode hex="0446"/>
  <outline>
    <contour>
      <point x="769" y="-312" type="line"/>
      <point x="966" y="-312" type="line"/>
      <point x="1018" y="183" type="line"/>
      <point x="860" y="183" type="line"/>
      <point x="965" y="1184" type="line"/>
      <point x="691" y="1184" type="line"/>
      <point x="586" y="183" type="line"/>
      <point x="351" y="183" type="line"/>
      <point x="456" y="1184" type="line"/>
      <point x="181" y="1184" type="line"/>
      <point x="57" y="0" type="line"/>
      <point x="780" y="0" type="line"/>
    </contour>
  </outline>
</glyph>
<glyph name="afii10090" format="1">
  <advance width="1363"/>
  <unicode hex="0448"/>
  <outline>
    <contour>
      <point x="58" y="0" type="line"/>
      <point x="1205" y="0" type="line"/>
      <point x="1329" y="1184" type="line"/>
      <point x="1068" y="1184" type="line"/>
      <point x="965" y="190" type="line"/>
      <point x="778" y="190" type="line"/>
      <point x="882" y="1184" type="line"/>
      <point x="621" y="1184" type="line"/>
      <point x="517" y="190" type="line"/>
      <point x="339" y="190" type="line"/>
      <point x="443" y="1184" type="line"/>
      <point x="182" y="1184" type="line"/>
    </contour>
  </outline>
</glyph>
<glyph name="afii10091" format="1">
  <advance width="1477"/>
  <unicode hex="0449"/>
  <outline>
    <contour>
      <point x="1134" y="-312" type="line"/>
      <point x="1331" y="-312" type="line"/>
      <point x="1383" y="183" type="line"/>
      <point x="1225" y="183" type="line"/>
      <point x="1330" y="1184" type="line"/>
      <point x="1068" y="1184" type="line"/>
      <point x="963" y="183" type="line"/>
      <point x="778" y="183" type="line"/>
      <point x="882" y="1184" type="line"/>
      <point x="621" y="1184" type="line"/>
      <point x="516" y="183" type="line"/>
      <point x="339" y="183" type="line"/>
      <point x="444" y="1184" type="line"/>
      <point x="182" y="1184" type="line"/>
      <point x="58" y="0" type="line"/>
      <point x="1145" y="0" type="line"/>
    </contour>
  </outline>
</glyph>
<glyph name="afii10093" format="1">
  <advance width="1387"/>
  <unicode hex="044B"/>
  <outline>
    <contour>
      <point x="58" y="0" type="line"/>
      <point x="337" y="0" type="line" smooth="yes"/>
      <point x="689" y="0"/>
      <point x="835" y="83"/>
      <point x="863" y="348" type="curve"/>
      <point x="893" y="636"/>
      <point x="750" y="696"/>
      <point x="425" y="698" type="curve" smooth="yes"/>
      <point x="405" y="698" type="line"/>
      <point x="456" y="1184" type="line"/>
      <point x="182" y="1184" type="line"/>
    </contour>
    <contour>
      <point x="349" y="158" type="line"/>
      <point x="388" y="537" type="line"/>
      <point x="399" y="537" type="line" smooth="yes"/>
      <point x="581" y="535"/>
      <point x="632" y="496"/>
      <point x="616" y="348" type="curve" smooth="yes"/>
      <point x="599" y="190"/>
      <point x="532" y="159"/>
      <point x="352" y="158" type="curve" smooth="yes"/>
    </contour>
    <contour>
      <point x="956" y="0" type="line"/>
      <point x="1230" y="0" type="line"/>
      <point x="1354" y="1184" type="line"/>
      <point x="1080" y="1184" type="line"/>
    </contour>
  </outline>
</glyph>
<glyph name="afii10099" format="1">
  <advance width="989"/>
  <unicode hex="0452"/>
  <outline>
    <contour>
      <point x="309" y="-319" type="line"/>
      <point x="373" y="-319" type="line" smooth="yes"/>
      <point x="729" y="-319"/>
      <point x="820" y="-227"/>
      <point x="866" y="210" type="curve" smooth="yes"/>
      <point x="922" y="743" type="line" smooth="yes"/>
      <point x="935" y="865"/>
      <point x="901" y="1003"/>
      <point x="708" y="1003" type="curve" smooth="yes"/>
      <point x="585" y="1003"/>
      <point x="474" y="939"/>
      <point x="445" y="929" type="curve"/>
      <point x="479" y="1243" type="line"/>
      <point x="761" y="1243" type="line"/>
      <point x="776" y="1393" type="line"/>
      <point x="494" y="1393" type="line"/>
      <point x="522" y="1658" type="line"/>
      <point x="248" y="1658" type="line"/>
      <point x="220" y="1393" type="line"/>
      <point x="76" y="1393" type="line"/>
      <point x="61" y="1243" type="line"/>
      <point x="204" y="1243" type="line"/>
      <point x="74" y="0" type="line"/>
      <point x="348" y="0" type="line"/>
      <point x="430" y="781" type="line"/>
      <point x="440" y="785"/>
      <point x="515" y="822"/>
      <point x="572" y="822" type="curve" smooth="yes"/>
      <point x="643" y="822"/>
      <point x="652" y="777"/>
      <point x="644" y="709" type="curve" smooth="yes"/>
      <point x="588" y="174" type="line" smooth="yes"/>
      <point x="559" y="-104"/>
      <point x="522" y="-157"/>
      <point x="354" y="-157" type="curve" smooth="yes"/>
      <point x="327" y="-157" type="line"/>
    </contour>
  </outline>
</glyph>
<glyph name="afii10101" format="1">
  <advance width="867"/>
  <unicode hex="0454"/>
  <outline>
    <contour>
      <point x="409" y="-18" type="curve" smooth="yes"/>
      <point x="660" y="-18"/>
      <point x="778" y="111"/>
      <point x="804" y="352" type="curve" smooth="yes"/>
      <point x="811" y="417" type="line"/>
      <point x="555" y="417" type="line"/>
      <point x="547" y="340" type="line" smooth="yes"/>
      <point x="537" y="243"/>
      <point x="515" y="181"/>
      <point x="434" y="181" type="curve" smooth="yes"/>
      <point x="360" y="181"/>
      <point x="334" y="218"/>
      <point x="351" y="379" type="curve"/>
      <point x="367" y="526" type="line"/>
      <point x="649" y="526" type="line"/>
      <point x="664" y="678" type="line"/>
      <point x="382" y="678" type="line"/>
      <point x="395" y="799" type="line" smooth="yes"/>
      <point x="411" y="953"/>
      <point x="437" y="1003"/>
      <point x="519" y="1003" type="curve" smooth="yes"/>
      <point x="592" y="1003"/>
      <point x="613" y="961"/>
      <point x="599" y="838" type="curve" smooth="yes"/>
      <point x="594" y="784" type="line"/>
      <point x="850" y="784" type="line"/>
      <point x="855" y="836" type="line"/>
      <point x="880" y="1082"/>
      <point x="794" y="1202"/>
      <point x="537" y="1202" type="curve" smooth="yes"/>
      <point x="256" y="1202"/>
      <point x="145" y="1033"/>
      <point x="117" y="759" type="curve" smooth="yes"/>
      <point x="82" y="425" type="line" smooth="yes"/>
      <point x="53" y="152"/>
      <point x="127" y="-18"/>
    </contour>
  </outline>
</glyph>
<glyph name="afii10103" format="1">
  <advance width="493"/>
  <unicode hex="0456"/>
  <outline>
    <contour>
      <point x="108" y="0" type="line"/>
      <point x="388" y="0" type="line"/>
      <point x="388" y="1184" type="line"/>
      <point x="108" y="1184" type="line"/>
    </contour>
    <contour>
      <point x="109" y="1355" type="line"/>
      <point x="389" y="1355" type="line"/>
      <point x="389" y="1591" type="line"/>
      <point x="109" y="1591" type="line"/>
    </contour>
  </outline>
</glyph>
<glyph name="afii10105" format="1">
  <advance width="491"/>
  <unicode hex="0458"/>
  <outline>
    <contour>
      <point x="-115" y="-304" type="line"/>
      <point x="-76" y="-317"/>
      <point x="-24" y="-323"/>
      <point x="25" y="-323" type="curve" smooth="yes"/>
      <point x="215" y="-323"/>
      <point x="336" y="-208"/>
      <point x="355" y="-23" type="curve" smooth="yes"/>
      <point x="482" y="1184" type="line"/>
      <point x="208" y="1184" type="line"/>
      <point x="84" y="8" type="line" smooth="yes"/>
      <point x="76" y="-70"/>
      <point x="38" y="-114"/>
      <point x="-36" y="-114" type="curve" smooth="yes"/>
      <point x="-53" y="-114"/>
      <point x="-79" y="-111"/>
      <point x="-94" y="-107" type="curve"/>
    </contour>
    <contour>
      <point x="227" y="1370" type="line"/>
      <point x="503" y="1370" type="line"/>
      <point x="528" y="1606" type="line"/>
      <point x="252" y="1606" type="line"/>
    </contour>
  </outline>
</glyph>
<glyph name="afii10106" format="1">
  <advance width="1494"/>
  <unicode hex="0459"/>
  <outline>
    <contour>
      <point x="37" y="-7" type="line"/>
      <point x="51" y="-9"/>
      <point x="80" y="-10"/>
      <point x="91" y="-11" type="curve" smooth="yes"/>
      <point x="377" y="-19"/>
      <point x="470" y="68"/>
      <point x="500" y="622" type="curve" smooth="yes"/>
      <point x="521" y="983" type="line"/>
      <point x="691" y="983" type="line"/>
      <point x="691" y="0" type="line"/>
      <point x="976" y="0" type="line" smooth="yes"/>
      <point x="1308" y="4"/>
      <point x="1440" y="91"/>
      <point x="1440" y="348" type="curve" smooth="yes"/>
      <point x="1440" y="628"/>
      <point x="1296" y="698"/>
      <point x="990" y="698" type="curve" smooth="yes"/>
      <point x="970" y="698" type="line"/>
      <point x="970" y="1184" type="line"/>
      <point x="281" y="1184" type="line"/>
      <point x="250" y="673" type="line" smooth="yes"/>
      <point x="227" y="282"/>
      <point x="210" y="186"/>
      <point x="37" y="192" type="curve"/>
    </contour>
    <contour>
      <point x="970" y="161" type="curve"/>
      <point x="970" y="534" type="line"/>
      <point x="971" y="534"/>
      <point x="975" y="534"/>
      <point x="976" y="534" type="curve" smooth="yes"/>
      <point x="1137" y="533"/>
      <point x="1187" y="488"/>
      <point x="1187" y="348" type="curve" smooth="yes"/>
      <point x="1187" y="202"/>
      <point x="1131" y="162"/>
      <point x="977" y="161" type="curve" smooth="yes"/>
      <point x="976" y="161"/>
      <point x="971" y="161"/>
    </contour>
  </outline>
</glyph>
<glyph name="afii10107" format="1">
  <advance width="1385"/>
  <unicode hex="045A"/>
  <outline>
    <contour>
      <point x="107" y="0" type="line"/>
      <point x="387" y="0" type="line"/>
      <point x="387" y="496" type="line"/>
      <point x="591" y="496" type="line"/>
      <point x="591" y="1" type="line"/>
      <point x="871" y="1" type="line" smooth="yes"/>
      <point x="1207" y="4"/>
      <point x="1339" y="91"/>
      <point x="1339" y="349" type="curve" smooth="yes"/>
      <point x="1339" y="628"/>
      <point x="1197" y="693"/>
      <point x="892" y="699" type="curve" smooth="yes"/>
      <point x="885" y="699"/>
      <point x="878" y="699"/>
      <point x="871" y="699" type="curve"/>
      <point x="871" y="1185" type="line"/>
      <point x="591" y="1185" type="line"/>
      <point x="591" y="706" type="line"/>
      <point x="387" y="706" type="line"/>
      <point x="387" y="1184" type="line"/>
      <point x="107" y="1184" type="line"/>
    </contour>
    <contour>
      <point x="871" y="162" type="curve"/>
      <point x="871" y="535" type="line"/>
      <point x="875" y="535"/>
      <point x="878" y="534"/>
      <point x="882" y="534" type="curve" smooth="yes"/>
      <point x="1038" y="528"/>
      <point x="1087" y="487"/>
      <point x="1087" y="348" type="curve" smooth="yes"/>
      <point x="1087" y="204"/>
      <point x="1032" y="167"/>
      <point x="881" y="163" type="curve" smooth="yes"/>
      <point x="878" y="162"/>
      <point x="874" y="162"/>
    </contour>
  </outline>
</glyph>
<glyph name="afii10108" format="1">
  <advance width="1000"/>
  <unicode hex="045B"/>
  <outline>
    <contour>
      <point x="123" y="0" type="line"/>
      <point x="402" y="0" type="line" smooth="yes"/>
      <point x="402" y="777" type="line"/>
      <point x="413" y="782"/>
      <point x="496" y="817"/>
      <point x="537" y="817" type="curve" smooth="yes"/>
      <point x="607" y="817"/>
      <point x="621" y="772"/>
      <point x="621" y="703" type="curve" smooth="yes"/>
      <point x="621" y="0" type="line"/>
      <point x="900" y="0" type="line"/>
      <point x="900" y="732" type="line" smooth="yes"/>
      <point x="900" y="860"/>
      <point x="852" y="1002"/>
      <point x="657" y="1002" type="curve" smooth="yes"/>
      <point x="537" y="1002"/>
      <point x="434" y="941"/>
      <point x="402" y="929" type="curve"/>
      <point x="402" y="1658" type="line"/>
      <point x="123" y="1658" type="line"/>
    </contour>
    <contour>
      <point x="-20" y="1240" type="line"/>
      <point x="683" y="1240" type="line"/>
      <point x="683" y="1392" type="line"/>
      <point x="-20" y="1392" type="line"/>
    </contour>
  </outline>
</glyph>
<glyph name="afii10193" format="1">
  <advance width="978"/>
  <unicode hex="045F"/>
  <outline>
    <contour>
      <point x="319" y="-312" type="line"/>
      <point x="509" y="-312" type="line"/>
      <point x="556" y="0" type="line"/>
      <point x="820" y="0" type="line"/>
      <point x="944" y="1184" type="line"/>
      <point x="670" y="1184" type="line"/>
      <point x="566" y="183" type="line"/>
      <point x="351" y="183" type="line"/>
      <point x="456" y="1184" type="line"/>
      <point x="182" y="1184" type="line"/>
      <point x="58" y="0" type="line"/>
      <point x="331" y="0" type="line"/>
    </contour>
  </outline>
</glyph>
<glyph name="uni0490" format="1">
  <advance width="837"/>
  <unicode hex="0490"/>
  <outline>
    <contour>
      <point x="77" y="0" type="line"/>
      <point x="372" y="0" type="line"/>
      <point x="524" y="1440" type="line"/>
      <point x="917" y="1440" type="line"/>
      <point x="965" y="1903" type="line"/>
      <point x="786" y="1903" type="line"/>
      <point x="761" y="1658" type="line"/>
      <point x="251" y="1658" type="line"/>
    </contour>
  </outline>
</glyph>
<glyph name="uni04AF" format="1">
  <advance width="843"/>
  <unicode hex="04AF"/>
  <outline>
    <contour>
      <point x="217" y="-357" type="line"/>
      <point x="460" y="-357" type="line"/>
      <point x="510" y="117" type="line"/>
      <point x="905" y="1184" type="line"/>
      <point x="641" y="1184" type="line"/>
      <point x="430" y="485" type="line"/>
      <point x="352" y="1184" type="line"/>
      <point x="88" y="1184" type="line"/>
      <point x="266" y="111" type="line"/>
    </contour>
  </outline>
</glyph>
<glyph name="uni04E9" format="1">
  <advance width="923"/>
  <unicode hex="04E9"/>
  <outline>
    <contour>
      <point x="189" y="533" type="line"/>
      <point x="680" y="533" type="line"/>
      <point x="695" y="686" type="line"/>
      <point x="205" y="686" type="line"/>
    </contour>
    <component base="o" xOffset="-13"/>
  </outline>
</glyph>
<glyph name="endash" format="1">
  <advance width="1024"/>
  <unicode hex="2013"/>
  <outline>
    <contour>
      <point x="3" y="498" type="line"/>
      <point x="1026" y="498" type="line"/>
      <point x="1046" y="696" type="line"/>
      <point x="23" y="696" type="line"/>
    </contour>
  </outline>
</glyph>
<glyph name="quoteleft" format="1">
  <advance width="755"/>
  <unicode hex="2018"/>
  <outline>
    <contour>
      <point x="178" y="1140" type="curve"/>
      <point x="450" y="1140" type="line"/>
      <point x="477" y="1399" type="line"/>
      <point x="351" y="1399" type="line"/>
      <point x="366" y="1541"/>
      <point x="398" y="1614"/>
      <point x="491" y="1614" type="curve"/>
      <point x="469" y="1709" type="line"/>
      <point x="297" y="1709"/>
      <point x="229" y="1582"/>
      <point x="202" y="1354" type="curve" smooth="yes"/>
      <point x="199" y="1335"/>
      <point x="181" y="1165"/>
    </contour>
  </outline>
</glyph>
<glyph name="quoteright" format="1">
  <advance width="455"/>
  <unicode hex="2019"/>
  <outline>
    <contour>
      <point x="231" y="1089" type="line"/>
      <point x="402" y="1089"/>
      <point x="469" y="1216"/>
      <point x="497" y="1445" type="curve" smooth="yes"/>
      <point x="500" y="1464"/>
      <point x="518" y="1633"/>
      <point x="520" y="1658" type="curve"/>
      <point x="249" y="1658" type="line"/>
      <point x="221" y="1399" type="line"/>
      <point x="347" y="1399" type="line"/>
      <point x="332" y="1257"/>
      <point x="301" y="1184"/>
      <point x="207" y="1184" type="curve"/>
    </contour>
  </outline>
</glyph>
<glyph name="quotedblleft" format="1">
  <advance width="970"/>
  <unicode hex="201C"/>
  <outline>
    <contour>
      <point x="178" y="1140" type="curve"/>
      <point x="450" y="1140" type="line"/>
      <point x="477" y="1399" type="line"/>
      <point x="351" y="1399" type="line"/>
      <point x="366" y="1541"/>
      <point x="398" y="1614"/>
      <point x="491" y="1614" type="curve"/>
      <point x="469" y="1709" type="line"/>
      <point x="297" y="1709"/>
      <point x="229" y="1582"/>
      <point x="202" y="1354" type="curve" smooth="yes"/>
      <point x="199" y="1335"/>
      <point x="181" y="1165"/>
    </contour>
    <contour>
      <point x="619" y="1140" type="curve"/>
      <point x="891" y="1140" type="line"/>
      <point x="918" y="1399" type="line"/>
      <point x="792" y="1399" type="line"/>
      <point x="807" y="1541"/>
      <point x="839" y="1614"/>
      <point x="932" y="1614" type="curve"/>
      <point x="910" y="1709" type="line"/>
      <point x="738" y="1709"/>
      <point x="670" y="1582"/>
      <point x="643" y="1354" type="curve" smooth="yes"/>
      <point x="640" y="1335"/>
      <point x="622" y="1165"/>
    </contour>
  </outline>
</glyph>
<glyph name="daggerdbl" format="1">
  <advance width="807"/>
  <unicode hex="2021"/>
  <outline>
    <contour>
      <point x="234" y="0" type="line"/>
      <point x="476" y="0" type="line"/>
      <point x="529" y="507" type="line"/>
      <point x="744" y="507" type="line"/>
      <point x="761" y="675" type="line"/>
      <point x="547" y="675" type="line"/>
      <point x="582" y="1012" type="line"/>
      <point x="797" y="1012" type="line"/>
      <point x="815" y="1184" type="line"/>
      <point x="600" y="1184" type="line"/>
      <point x="650" y="1654" type="line"/>
      <point x="408" y="1654" type="line"/>
      <point x="358" y="1184" type="line"/>
      <point x="143" y="1184" type="line"/>
      <point x="125" y="1012" type="line"/>
      <point x="341" y="1012" type="line"/>
      <point x="305" y="675" type="line"/>
      <point x="89" y="675" type="line"/>
      <point x="71" y="507" type="line"/>
      <point x="287" y="507" type="line"/>
    </contour>
  </outline>
</glyph>
<glyph name="uni2074" format="1">
  <advance width="794"/>
  <unicode hex="2074"/>
  <outline>
    <contour>
      <point x="408" y="523" type="line"/>
      <point x="631" y="523" type="line"/>
      <point x="662" y="818" type="line"/>
      <point x="784" y="818" type="line"/>
      <point x="798" y="951" type="line"/>
      <point x="677" y="951" type="line"/>
      <point x="750" y="1658" type="line"/>
      <point x="538" y="1658" type="line"/>
      <point x="112" y="949" type="line"/>
      <point x="98" y="818" type="line"/>
      <point x="439" y="818" type="line"/>
    </contour>
    <contour>
      <point x="270" y="951" type="line"/>
      <point x="494" y="1340" type="line"/>
      <point x="453" y="951" type="line"/>
    </contour>
  </outline>
</glyph>
<glyph name="afii61289" format="1">
  <advance width="1112"/>
  <unicode hex="2113"/>
  <outline>
    <contour>
      <point x="849" y="148" type="curve"/>
      <point x="779" y="246" type="line"/>
      <point x="606" y="64"/>
      <point x="443" y="58"/>
      <point x="517" y="338" type="curve" smooth="yes"/>
      <point x="629" y="763" type="line"/>
      <point x="782" y="938" type="line" smooth="yes"/>
      <point x="1730" y="2027"/>
      <point x="813" y="2127"/>
      <point x="688" y="1636" type="curve" smooth="yes"/>
      <point x="470" y="773" type="line"/>
      <point x="144" y="389" type="line"/>
      <point x="223" y="299" type="line"/>
      <point x="401" y="505" type="line"/>
      <point x="361" y="345" type="line" smooth="yes"/>
      <point x="246" y="-104"/>
      <point x="604" y="-104"/>
    </contour>
    <contour>
      <point x="705" y="1048" type="curve"/>
      <point x="860" y="1637" type="line" smooth="yes"/>
      <point x="897" y="1775"/>
      <point x="1040" y="1805"/>
      <point x="1040" y="1665" type="curve" smooth="yes"/>
      <point x="1040" y="1575"/>
      <point x="981" y="1414"/>
      <point x="795" y="1165" type="curve" smooth="yes"/>
      <point x="768" y="1128"/>
      <point x="738" y="1089"/>
    </contour>
  </outline>
</glyph>
<glyph name="trademark" format="1">
  <advance width="1619"/>
  <unicode hex="2122"/>
  <outline>
    <contour>
      <point x="771" y="716" type="line"/>
      <point x="928" y="716" type="line"/>
      <point x="985" y="1263" type="line"/>
      <point x="1105" y="716" type="line"/>
      <point x="1189" y="716" type="line"/>
      <point x="1417" y="1261" type="line"/>
      <point x="1360" y="716" type="line"/>
      <point x="1516" y="716" type="line"/>
      <point x="1615" y="1658" type="line"/>
      <point x="1434" y="1658" type="line"/>
      <point x="1177" y="1048" type="line"/>
      <point x="1060" y="1658" type="line"/>
      <point x="870" y="1658" type="line"/>
    </contour>
    <contour>
      <point x="321" y="716" type="line"/>
      <point x="514" y="716" type="line"/>
      <point x="596" y="1495" type="line"/>
      <point x="760" y="1495" type="line"/>
      <point x="777" y="1658" type="line"/>
      <point x="246" y="1658" type="line"/>
      <point x="229" y="1495" type="line"/>
      <point x="403" y="1495" type="line"/>
    </contour>
  </outline>
</glyph>
<glyph name="product" format="1">
  <advance width="1182"/>
  <unicode hex="220F"/>
  <outline>
    <contour>
      <point x="27" y="-390" type="line"/>
      <point x="298" y="-390" type="line"/>
      <point x="492" y="1447" type="line"/>
      <point x="895" y="1447" type="line"/>
      <point x="701" y="-390" type="line"/>
      <point x="973" y="-390" type="line"/>
      <point x="1188" y="1658" type="line"/>
      <point x="242" y="1658" type="line"/>
    </contour>
  </outline>
</glyph>
<glyph name="summation" format="1">
  <advance width="854"/>
  <unicode hex="2211"/>
  <outline>
    <contour>
      <point x="-39" y="-390" type="line"/>
      <point x="683" y="-390" type="line"/>
      <point x="705" y="-185" type="line"/>
      <point x="297" y="-185" type="line"/>
      <point x="647" y="654" type="line"/>
      <point x="476" y="1448" type="line"/>
      <point x="871" y="1448" type="line"/>
      <point x="893" y="1658" type="line"/>
      <point x="176" y="1658" type="line"/>
      <point x="370" y="652" type="line"/>
    </contour>
  </outline>
</glyph>
<glyph name="radical" format="1">
  <advance width="1116"/>
  <unicode hex="221A"/>
  <outline>
    <contour>
      <point x="461" y="0" type="line"/>
      <point x="766" y="0" type="line"/>
      <point x="1091" y="1658" type="line"/>
      <point x="814" y="1658" type="line"/>
      <point x="675" y="809" type="line"/>
      <point x="615" y="393" type="line"/>
      <point x="615" y="393"/>
      <point x="553" y="809"/>
      <point x="553" y="809" type="curve"/>
      <point x="553" y="809"/>
      <point x="484" y="1184"/>
      <point x="484" y="1184" type="curve"/>
      <point x="18" y="1184" type="line"/>
      <point x="18" y="1013" type="line"/>
      <point x="256" y="1015" type="line"/>
    </contour>
  </outline>
</glyph>
<glyph name="infinity" format="1">
  <advance width="1318"/>
  <unicode hex="221E"/>
  <outline>
    <contour>
      <point x="356" y="203" type="curve" smooth="yes"/>
      <point x="496" y="203"/>
      <point x="593" y="286"/>
      <point x="671" y="375" type="curve"/>
      <point x="746" y="293"/>
      <point x="839" y="219"/>
      <point x="965" y="222" type="curve"/>
      <point x="1157" y="226"/>
      <point x="1269" y="368"/>
      <point x="1269" y="560" type="curve" smooth="yes"/>
      <point x="1269" y="751"/>
      <point x="1157" y="893"/>
      <point x="965" y="897" type="curve"/>
      <point x="839" y="900"/>
      <point x="746" y="826"/>
      <point x="671" y="744" type="curve"/>
      <point x="593" y="833"/>
      <point x="496" y="916"/>
      <point x="356" y="916" type="curve" smooth="yes"/>
      <point x="148" y="916"/>
      <point x="49" y="750"/>
      <point x="49" y="560" type="curve" smooth="yes"/>
      <point x="49" y="369"/>
      <point x="148" y="203"/>
    </contour>
    <contour>
      <point x="353" y="431" type="curve" smooth="yes"/>
      <point x="293" y="428"/>
      <point x="241" y="475"/>
      <point x="241" y="560" type="curve" smooth="yes"/>
      <point x="241" y="644"/>
      <point x="293" y="692"/>
      <point x="353" y="688" type="curve" smooth="yes"/>
      <point x="407" y="685"/>
      <point x="472" y="648"/>
      <point x="555" y="560" type="curve"/>
      <point x="472" y="471"/>
      <point x="404" y="434"/>
    </contour>
    <contour>
      <point x="975" y="446" type="curve" smooth="yes"/>
      <point x="926" y="445"/>
      <point x="873" y="475"/>
      <point x="792" y="560" type="curve"/>
      <point x="873" y="645"/>
      <point x="926" y="674"/>
      <point x="975" y="673" type="curve" smooth="yes"/>
      <point x="1020" y="673"/>
      <point x="1073" y="641"/>
      <point x="1073" y="560" type="curve" smooth="yes"/>
      <point x="1073" y="478"/>
      <point x="1020" y="446"/>
    </contour>
  </outline>
</glyph>
<glyph name="lozenge" format="1">
  <advance width="985"/>
  <unicode hex="25CA"/>
  <outline>
    <contour>
      <point x="438" y="0" type="line"/>
      <point x="550" y="0" type="line"/>
      <point x="913" y="593" type="line"/>
      <point x="541" y="1185" type="line"/>
      <point x="429" y="1185" type="line"/>
      <point x="72" y="593" type="line"/>
    </contour>
    <contour>
      <point x="493" y="184" type="line"/>
      <point x="257" y="593" type="line"/>
      <point x="487" y="986" type="line"/>
      <point x="727" y="593" type="line"/>
    </contour>
  </outline>
</glyph>
<glyph name="uniFB03" format="1">
  <advance width="1571"/>
  <unicode hex="FB03"/>
  <outline>
    <contour>
      <point x="112" y="0" type="line"/>
      <point x="386" y="0" type="line"/>
      <point x="490" y="989" type="line"/>
      <point x="729" y="989" type="line"/>
      <point x="625" y="0" type="line"/>
      <point x="898" y="0" type="line"/>
      <point x="1002" y="989" type="line"/>
      <point x="1241" y="989" type="line"/>
      <point x="1137" y="0" type="line"/>
      <point x="1411" y="0" type="line"/>
      <point x="1535" y="1184" type="line"/>
      <point x="1022" y="1184" type="line"/>
      <point x="1032" y="1274" type="line" smooth="yes"/>
      <point x="1040" y="1351"/>
      <point x="1062" y="1400"/>
      <point x="1132" y="1400" type="curve" smooth="yes"/>
      <point x="1154" y="1400"/>
      <point x="1183" y="1393"/>
      <point x="1205" y="1391" type="curve"/>
      <point x="1227" y="1595" type="line"/>
      <point x="1167" y="1602"/>
      <point x="1138" y="1606"/>
      <point x="1083" y="1606" type="curve" smooth="yes"/>
      <point x="830" y="1606"/>
      <point x="779" y="1467"/>
      <point x="756" y="1245" type="curve"/>
      <point x="749" y="1184" type="line"/>
      <point x="510" y="1184" type="line"/>
      <point x="520" y="1274" type="line" smooth="yes"/>
      <point x="528" y="1351"/>
      <point x="549" y="1400"/>
      <point x="618" y="1400" type="curve" smooth="yes"/>
      <point x="640" y="1400"/>
      <point x="669" y="1393"/>
      <point x="691" y="1391" type="curve"/>
      <point x="712" y="1595" type="line"/>
      <point x="653" y="1602"/>
      <point x="625" y="1606"/>
      <point x="570" y="1606" type="curve" smooth="yes"/>
      <point x="318" y="1606"/>
      <point x="266" y="1467"/>
      <point x="243" y="1245" type="curve"/>
      <point x="236" y="1184" type="line"/>
      <point x="107" y="1184" type="line"/>
      <point x="87" y="989" type="line"/>
      <point x="216" y="989" type="line"/>
    </contour>
    <contour>
      <point x="1292" y="1370" type="line"/>
      <point x="1556" y="1370" type="line"/>
      <point x="1581" y="1606" type="line"/>
      <point x="1317" y="1606" type="line"/>
    </contour>
  </outline>
</glyph>
<glyph name="uni04AE" format="1">
  <advance width="998"/>
  <outline>
    <contour>
      <point x="309" y="0" type="line"/>
      <point x="591" y="0" type="line"/>
      <point x="667" y="722" type="line"/>
      <point x="1103" y="1658" type="line"/>
      <point x="830" y="1658" type="line"/>
      <point x="668" y="1271" type="line"/>
      <point x="561" y="1015" type="line"/>
      <point x="505" y="1272" type="line"/>
      <point x="418" y="1658" type="line"/>
      <point x="143" y="1658" type="line"/>
      <point x="385" y="722" type="line"/>
    </contour>
  </outline>
</glyph>
<glyph name="uni2219" format="1">
  <advance width="400"/>
  <outline>
    <contour>
      <point x="65" y="636" type="line"/>
      <point x="336" y="636" type="line"/>
      <point x="336" y="905" type="line"/>
      <point x="65" y="905" type="line"/>
    </contour>
  </outline>
</glyph>
